<svg width="80" height="80" viewBox="0 0 80 80" fill="none" xmlns="http://www.w3.org/2000/svg">
<path d="M26.3868 51.3832L23.084 48.4393M26.3868 51.3832L27.1092 52.014M26.3868 51.3832L37.2226 41.5M29.2767 53.9065L32.1666 56.4299M29.2767 53.9065L28.8638 53.5461M29.2767 53.9065L40.2518 44M27.1092 52.014L27.8317 52.6449L28.8638 53.5461M27.1092 52.014L15 63.5L16.3906 65L28.8638 53.5461M40.5117 38.5L61.8913 19V24.4673L43.5 41.068" stroke="#FAFF00" stroke-width="3"/>
<path d="M54.5044 51.3832L18.9998 19L18.9998 24.4673L51.6145 53.9065M54.5044 51.3832L57.8071 48.4393M54.5044 51.3832L53.7819 52.014M51.6145 53.9065L48.7245 56.4299M51.6145 53.9065L52.0273 53.5461M53.7819 52.014L53.0594 52.6449L52.0273 53.5461M53.7819 52.014L65.8911 63.5L64.5005 65L52.0273 53.5461" stroke="#FAFF00" stroke-width="3"/>
<path d="M9 39H23M55.5 39H69.5M9 30.5H17.5M62 30.5H69.5M9 48H17.5M61 48H69.5" stroke="white" stroke-width="3"/>
</svg>
