<svg width="80" height="80" viewBox="0 0 80 80" fill="none" xmlns="http://www.w3.org/2000/svg">
<path d="M34.2447 32.1084L30.3811 40.7427L35.4805 52.4008L44.4435 55.4246L50.8568 52.6193L54.7204 43.985L49.621 32.3269L40.658 29.3031M34.2447 32.1084L40.658 29.3031M34.2447 32.1084L29.948 22.2853L36.3613 19.4801L40.658 29.3031M47.0713 26.4979L43.0565 24.5833L38.5001 14.1666L31.6201 17.3745" stroke="white" stroke-width="3"/>
<path d="M49.5 23L60.9454 21.2212L58.2684 33.7209L69 40.6666L58.2684 47.6123L60.9454 60.112L48.4457 57.435L41.5 68.1666L34.5543 57.435L22.0546 60.112L24.7316 47.6123L14 40.6666L24.7316 33.7209L22.0546 21.2212L26.5 22" stroke="#FF9700" stroke-width="3"/>
</svg>
