<svg width="80" height="80" viewBox="0 0 80 80" fill="none" xmlns="http://www.w3.org/2000/svg">
<path d="M51.2 66.7667L51.8213 66.7667L52.2607 66.3273L65.3273 53.2606L65.7667 52.8213V52.2L65.7667 44.7333L65.7667 44.112L65.3273 43.6727L54.1273 32.4727L53.688 32.0333L53.0667 32.0333H45.6L44.9787 32.0333L44.5393 32.4727L43.7333 33.2787L32.788 22.3333L33.594 21.5273L34.6547 20.4667L33.594 19.406L29.8607 15.6727L28.8 14.612L27.7393 15.6727L14.6727 28.7393L13.612 29.8L14.6727 30.8607L18.406 34.594L19.4667 35.6546L20.5273 34.594L21.3333 33.788L32.2787 44.7333L31.4727 45.5393L31.0333 45.9787L31.0333 46.6L31.0333 54.0667L31.0333 54.688L31.4727 55.1273L42.6727 66.3273L43.112 66.7667L43.7333 66.7667L51.2 66.7667Z" stroke="white" stroke-width="3"/>
<path d="M44.5 63.5L34 53V52H62L50.5 63.5H44.5Z" fill="#ADFF00"/>
<path d="M13 54.3077L17.5 42L22 54.3077V58.9231L19 62H16L13 58.9231V54.3077Z" fill="#ADFF00"/>
</svg>
