<svg width="854" height="852" viewBox="0 0 854 852" fill="none" xmlns="http://www.w3.org/2000/svg">
<g clip-path="url(#clip0_73_23)">
<path d="M449 765.1L629 640.1L630 483.1L506 480.1L503 452.1L667 455.1L699 520.1L747 712.1L828 779.1L811.5 810.6L825 851.6H435L460 827.1L449 765.1Z" fill="#D5D5D5"/>
<path d="M129.5 851.6L131.5 761.6L201.5 739.1L186.5 669.1L248 518.6L315 485.6L458.5 526.6L307 852.1L129.5 851.6Z" fill="#D5D5D5"/>
<path d="M307 852.1L269.6 671.1L296.6 651.6L292.1 578.1L427.1 585.6L580.1 533.1L606.5 655.6L449 765.1L460 827.1L435 851.6L307 852.1Z" fill="#7F7F7F"/>
<path d="M544.1 848.1L554.6 795.6L722.6 713.1L700.5 525.1L751.1 731.1L571.1 807.6L544.1 848.1Z" fill="#7F7F7F"/>
<path d="M811.5 810.6L725.6 804.6L686.6 848.1L740.6 819.6L811.5 810.6Z" fill="#7F7F7F"/>
<path d="M307 852.1L269.6 671.1L296.6 651.6L292.1 578.1L391.1 582.6L385.1 509.1L287.6 512.1L220.1 668.1L307 852.1Z" fill="#4B4B4B"/>
<path d="M606.5 655.6L629 640.1L630 483.1L525.5 480.1L543 545.6L580.1 533.1L606.5 655.6Z" fill="#4B4B4B"/>
<path d="M301.5 658.6L289.5 667.6L307.5 687.1L294.5 707.1L369 731.1L446 688.1L483 647.6L383.5 669.6L326.5 660.1L370 688.6L352.5 695.6L301.5 658.6Z" fill="#4B4B4B"/>
<path d="M394.5 739.1L553.5 625.6L543 545.6L580.1 533.1L606.5 655.6L470 750.6L429.5 731.1L394.5 739.1Z" fill="#4B4B4B"/>
<path d="M201.5 739.1L221.6 816.6L208.1 852.6L201.5 739.1Z" fill="#7F7F7F"/>
<path d="M545 691.4L602.6 782.1L634 765.4L574.1 671.1L545 691.4Z" fill="white"/>
<path d="M587.6 660.6L649.1 755.1L680 741.4L618.3 639.4L587.6 660.6Z" fill="white"/>
<path d="M638 541.1L667.3 527.1L702.3 549.1L710.7 570.1L786.7 528.8L719 505.1L700.7 526.7L672.6 506L637.4 521.7L638 541.1Z" fill="#4B4B4B"/>
<path d="M265.3 587.5L244 575.7L219 593.7L213.1 611.1L157.9 576.3L206.6 557.2L220 575.2L240.1 558.2L265.6 571.4L265.3 587.5Z" fill="#4B4B4B"/>
<path d="M241.3 651.9L220 640.1L195 658.1L189.1 675.5L133.9 640.7L182.6 621.5L196 639.6L216.1 622.6L241.6 635.8L241.3 651.9Z" fill="#4B4B4B"/>
<path d="M640.7 624.1L678.7 605.4L712 621.7L730.4 647.8L810.7 607.1L737.1 583.1L716.4 600.1L686.8 583.7L639.2 600.5L640.7 624.1Z" fill="#4B4B4B"/>
<path d="M460 827.1L352.1 815.1L435 851.6L460 827.1Z" fill="#4B4B4B"/>
<path d="M636.6 505.7L668 492.6L691.3 504.3L688.5 498.8L667.3 488.8L636.5 501.3L636.6 505.7Z" fill="#4B4B4B"/>
<path d="M638.5 589.1L684.5 574.1L707.4 583.7L706.8 578.6L684.5 570.1L638.3 584.9L638.5 589.1Z" fill="#4B4B4B"/>
<path d="M231.8 558.1L242 550.1L266.8 560.1L268.5 556.3L241.8 545.8L233.8 553.1L231.8 558.1Z" fill="#4B4B4B"/>
<path d="M204.5 625L216.8 615.6L238.4 625.8L240.3 621.8L217.2 611.6L206.5 620.3L204.5 625Z" fill="#4B4B4B"/>
<path d="M264.4 433.1L250.5 289.2L342.6 181.5L486.6 171.4L590.1 261.9L598.9 369.1L581.4 411.1L611.9 404.2L627.9 459L559 520L534.7 517.3L491.1 583.7L421.9 635.6L366.9 629.6L303.1 563L287 462.8L264.4 433.1Z" fill="#D5D5D5"/>
<path d="M543.2 430.6L560.9 519.8L526.3 613.7L461 694.1L471 724.1L418.4 694.4L412.9 672.7L367 709.1L394 740.1H347L365.4 770.7L328 746.1L299.6 683.5L275 708.1L270 674.1L255 688.1L243.5 616.3L295.1 572.1L292.1 491.1L310 560.1L341.6 594.6L367 578.1L433.1 588.6L452.6 561.6L465.3 475.4L480 478.7L492.7 453.7L502.8 496.1L543.2 430.6Z" fill="white"/>
<path d="M592 263.1L595 316.1L581 328.8L525.5 332.3L519.5 360.7L499.3 369.2L516.3 314.7L504.4 306.7L416.1 429L432.9 490.9L470.8 442.1L492.2 452.8L502.8 496.1L561.6 528.3L606.7 501.3L631.8 450.9L619.3 414.6L606.5 389.4L628.1 379.4L620 291.1L592 263.1Z" fill="#7F7F7F"/>
<path d="M532 487.2L524.5 439.8L562.4 405.1L608.4 421.1L618.5 457.9L583.2 504.9L532 487.2Z" fill="white"/>
<path d="M567 413.3L537.3 442.7L543.2 482.8L582.4 497.4L610.4 457.2L602.6 426.6L567 413.3Z" fill="#626262"/>
<path d="M606.5 389.4L614.8 405.7L560.1 390.7L514.9 414.9L492.2 452.8L488.6 419.1L507.3 384.6L556.3 367.1L606.5 389.4Z" fill="#626262"/>
<path d="M302.1 313.6L329.6 272.1L359.6 257.1L365.6 234.7L445.3 174.1L486.7 171.4L589.1 261.6L649.1 270.6L698.6 234.7L676.1 231.7L653.6 219.7L688.1 192.7L665.6 191.2L608.6 162.7L635.6 117.7L613.1 101.2L614.6 122.2L560.6 134.2L562.1 119.2H499.1L484.1 129.7L491.6 89.2L434.6 123.7L353 129.1L333 174.1L253 201.1L247 265.1L302.1 313.6Z" fill="white"/>
<path d="M465.1 417.6L423.1 392.1L376.1 396.4L364.8 423.3H337.4L301.8 397.7L254.8 404.5L229.3 436.4L248.4 483.8L284.6 500.1L315.1 486.9L336.7 436.4L355 446.4L351.3 455.1L398.4 497.6L436.5 491.9L473.3 439.5L465.1 417.6Z" fill="#626262"/>
<path d="M240.8 438.3L257.9 412L294.1 422.6L311.3 466.3L285.2 491.3L255.4 479.5L240.8 438.3Z" fill="#F76383"/>
<path d="M367.2 433.3L372.9 459.5L406 489.4L434.6 468.8L432.7 428.9L391.4 405.8L367.2 433.3Z" fill="#F76383"/>
<path d="M329.5 561.3L415.7 552.3L437.2 568.8H427.8L415.7 560.6L329.5 568.8V561.3Z" fill="#7F7F7F"/>
<path d="M509 190.1L437 252.1L534 209.1L509 190.1Z" fill="white"/>
<path d="M550 226.1L493 267.1L571 244.1L550 226.1Z" fill="white"/>
<path d="M226 419.1L249 392.1L423 377.1L478 405.1L483 397.1L427 361.1L242 383.1L225 409.1L226 419.1Z" fill="#626262"/>
<path d="M266 406.1L273 385.1L287 384.1L281 406.1H266Z" fill="#626262"/>
<path d="M387 399.1L394 375.1L407 372.1L402 397.1L387 399.1Z" fill="#626262"/>
</g>
<defs>
<clipPath id="clip0_73_23">
<rect width="854" height="852" fill="white"/>
</clipPath>
</defs>
</svg>
