<svg width="854" height="853" viewBox="0 0 854 853" fill="none" xmlns="http://www.w3.org/2000/svg">
<path d="M264.4 433.1L250.5 289.2L342.6 181.5L486.6 171.4L590.1 261.9L598.9 369.1L581.4 411.1L611.9 404.2L627.9 459L559 520L534.7 517.3L491.1 583.7L421.9 635.6L366.9 629.6L303.1 563L287 462.8L264.4 433.1Z" fill="#D5D5D5"/>
<path d="M461.4 606H491.1L573 458.1L586.5 422.6L581.4 411.1L468.7 524.1L461.4 606Z" fill="#7F7F7F"/>
<path d="M491.1 606L496.6 524.1L586.5 422.6L573 458.1L491.1 606Z" fill="#626262"/>
<path d="M342.7 604.3L295.7 517.2L274.1 517.3L316 604.3H342.7Z" fill="#7F7F7F"/>
<path d="M287 462.8L274.1 517.3L295.7 517.2L287 462.8Z" fill="#626262"/>
<path d="M342.7 604.3L357.7 635.6L454.6 638.9L461.4 606L342.7 604.3Z" fill="#7F7F7F"/>
<path d="M454.6 638.9L474 606H461.4L454.6 638.9Z" fill="#626262"/>
<path d="M339.9 541.9L336.7 550.8L439.2 558V534.7L339.9 541.9Z" fill="white"/>
<path d="M619.2 429.4L649 275L702 203.3L639.5 189.8L692.5 164.6L516.4 108.4L438.7 121.9L463.4 87.1L374.3 114.2L313.7 170.4L328.9 114.2L268.3 195.6L228.5 318.3L264.4 433.1L257.1 357.6L286.4 253.9L295.4 307L344.3 324.5L522.1 228.5L569.4 269.2L537.7 335.4L550.5 383.6L542.9 494.1L559.9 466.9L567.5 414.6L611.9 404.2L619.2 429.4Z" fill="#FE7272"/>
<path d="M286.6 425.8L328.6 431.9L324.2 442.8L298.1 450.6L286.6 425.8Z" fill="white"/>
<path d="M493.1 409.5L489.6 401.2L275.8 400.4L264.5 432.7L295 472.2L330.3 475L354 417.9L365.9 418.1L397.9 480L467.2 474.9L503.7 433.3L493.1 409.5ZM317.1 460.6L297.9 460.3L274.9 429.1L280.9 417.6H334.4L317.1 460.6ZM459.1 460.6L412.2 464.8L390.7 417.7L477.9 417.5L483.4 431.1L459.1 460.6Z" fill="#7F7F7F"/>
<path d="M397.6 432.9L451 426L437.3 452.7L403.1 445L397.6 432.9Z" fill="white"/>
<path d="M286.6 425.8L327.3 434.7L329.3 430.3L286.6 425.8Z" fill="black"/>
<path d="M398.5 434.7L451 426L396.8 431.1L398.5 434.7Z" fill="black"/>
<path d="M521.7 466.2L552.1 581.4L644.2 615.4L796.2 758.3L821.1 852.1H130L238.9 712.4L392.3 613.3L389.9 555.8L521.7 466.2Z" fill="#D5D5D5"/>
<path d="M491.1 583.7L421.9 635.6L482.9 641.8L520.8 568.2L534.7 517.3L491.1 583.7Z" fill="#7F7F7F"/>
<path d="M823.9 852L799 758.3L654.8 599.2L545.4 556.3L418 703.7L383.1 600L236.7 690L132.8 852H823.9Z" fill="#4B4B4B"/>
<path d="M448.5 852L712.6 540L534.7 517.3L500.1 608.3L340.9 791.1L360.8 812.9L330 852H448.5Z" fill="#626262"/>
<path d="M355.1 617.2L330 591L132 651.1L193.9 756.7L236.7 690L355.1 617.2Z" fill="#626262"/>
<path d="M710.6 741.7L691 748.3L691.8 751.9H566.7L550.4 731.7L541.9 741.7L558.8 761.2H693.9L695.5 768.3L713 771.8L724 756.6L710.6 741.7Z" fill="#7F7F7F"/>
<path d="M770.8 782.6L749.8 786.9V791.5H563.4L547.3 815.5H479.2L470.6 825.6H558L572.7 800.7H749.8V805.4L762.8 811.4L779.3 799.4L770.8 782.6Z" fill="#7F7F7F"/>
</svg>
