<svg width="854" height="852" viewBox="0 0 854 852" fill="none" xmlns="http://www.w3.org/2000/svg">
<g clip-path="url(#clip0_110_317)">
<path d="M674.599 676.5L690.199 662L688.499 655.3L700.699 631.5L732.899 633.9L736.899 610.1L777.299 551.3L774.599 530.9L796.699 513.9L826.399 516.7L832.799 527.8L750.399 660.4L755.299 681.5L727.199 724.9L674.599 676.5Z" fill="#4B4B4B"/>
<path d="M260.699 738.9L252.599 719.2L245.699 718.5L227.799 698.7L241.299 669.4L220.399 657.3L179.499 598.9L159.399 594.2L151.199 567.6L164.299 540.8L176.899 538.6L272.199 662.3L293.699 665.1L324.499 706.6L260.699 738.9Z" fill="#4B4B4B"/>
<path d="M179.099 852L245.999 737.2L450.799 614.4L429.099 563.5L563.299 412.1L577.999 584.6L784.599 748.3L814.099 852.1L179.099 852Z" fill="#D5D5D5"/>
<path d="M445.399 601.6L570.699 502.1L469.299 640.1L445.299 624.1L445.399 601.6Z" fill="#7F7F7F"/>
<path d="M397.099 641.1L440.599 690.6L439.099 710.1L482.599 711.6L487.099 695.1L626.599 624.6L538.099 606.6L391.099 620.1L397.099 641.1Z" fill="#4B4B4B"/>
<path d="M254.099 852.1L322.999 768.1L369.999 663.1L398.699 645.2L356.999 764.1L554.999 773.1L627.499 623.6L657.999 648.1L599.999 785.1L701.899 852.2L254.099 852.1Z" fill="#606060"/>
<path d="M472.999 737.1L439.999 740.1L407.999 764.1L414.999 799.1L476.999 805.1L500.999 770.1L472.999 737.1ZM465.999 790.1L429.999 785.1L424.999 770.1L442.999 749.1L464.999 748.1L481.999 772.1L465.999 790.1Z" fill="white"/>
<path d="M664.199 824.8L665.199 801.2L648.799 775.7L619.299 776.3L607.799 819.3L633.999 840.5L664.199 824.8ZM621.399 813.4L629.299 788.6L642.199 786.9L657.599 802.2L656.099 817.8L634.599 826.8L621.399 813.4Z" fill="white"/>
<path d="M280.099 794.1L287.199 810L307.899 821.1L329.699 810.4L323.899 778.1L297.299 773.3L280.099 794.1ZM315.899 786.8L318.299 805.9L309.299 811.5L292.699 806.8L288.599 796L301.599 782.6L315.899 786.8Z" fill="white"/>
<path d="M474.299 766.7L657.999 648.1L649.299 640.9L468.299 757.1L474.299 766.7Z" fill="#4B4B4B"/>
<path d="M439.999 758.1L377.999 658.1L369.999 663.1L431.999 768.1L439.999 758.1Z" fill="#4B4B4B"/>
<path d="M438.999 782.1L421.999 851.1L439.999 852.1L452.999 782.1H438.999Z" fill="#4B4B4B"/>
<path d="M697.899 659.3L642.999 743.1L666.999 767.1L755.999 708.1L697.899 659.3Z" fill="#606060"/>
<path d="M780.999 725.1L687.999 794.1L701.999 822.1L833.999 804.1L780.999 725.1Z" fill="#606060"/>
<path d="M659.999 736.7L660.299 744.7L668.699 748.7L675.299 741.7L668.699 735.1L659.999 736.7Z" fill="white"/>
<path d="M706.899 793.7L703.299 800.5L708.699 807.7L717.299 804.8L716.399 795.2L706.899 793.7Z" fill="white"/>
<path d="M645.699 794.1L750.299 720.7L758.699 728.1L652.299 802.7L645.699 794.1Z" fill="#4B4B4B"/>
<path d="M640.699 823.1L655.999 852.4H667.699L648.699 818.4L640.699 823.1Z" fill="#4B4B4B"/>
<path d="M468.299 785.1L624.999 809.4L628.299 798.7L474.299 776.4L468.299 785.1Z" fill="#4B4B4B"/>
<path d="M258.299 811.8L169.999 806.1L238.299 724.7L271.399 793.4L258.299 811.8Z" fill="#606060"/>
<path d="M268.099 700.7L292.099 751.6L317.099 735.3L322.899 668.9L268.099 700.7Z" fill="#606060"/>
<path d="M314.199 794.9L428.699 771.8L431.499 780.5L315.299 803.1L314.199 794.9Z" fill="#4B4B4B"/>
<path d="M303.299 808.7L291.299 852.1H281.299L297.299 805.4L303.299 808.7Z" fill="#4B4B4B"/>
<path d="M294.299 794.4L255.599 731.2L261.799 727.6L298.999 789.7L294.299 794.4Z" fill="#4B4B4B"/>
<path d="M307.199 726.6L306.099 732.9L298.399 735.1L293.299 728.8L299.799 724.3L307.199 726.6Z" fill="white"/>
<path d="M257.699 789.3L259.999 795.1L254.799 800.2L247.899 797L249.699 789.4L257.699 789.3Z" fill="white"/>
<path d="M581.299 490.4L456.599 623.9L407.899 625L324.499 500.5V452L303.699 396L299.599 298.6L371.299 199.7L474.599 166.2L596.999 212.3L635.199 314.7L629.199 383.4L655.199 389.1L666.199 421.2L608.099 493.4L581.299 490.4Z" fill="#D5D5D5"/>
<path d="M433.099 430.1L477.899 409.8L514.399 441.7L435.899 450.4L433.099 430.1Z" fill="white"/>
<path d="M419.999 435.7L478.999 408.1L514.399 419.1H493.099L514.399 441.7L478.999 421.1L419.999 435.7Z" fill="black"/>
<path d="M371.299 451.9L321.299 450.5L332.699 426.2L368.799 437.3L371.299 451.9Z" fill="white"/>
<path d="M377.999 439.1L334.599 429.5L321.299 450.5L327.399 429.1L313.699 430.1L330.299 419.1L377.999 439.1Z" fill="black"/>
<path d="M373.499 418.5L366.699 405.9L303.699 393.2L373.499 418.5Z" fill="black"/>
<path d="M410.299 417.3L512.399 386.7L417.899 403.7L410.299 417.3Z" fill="black"/>
<path d="M373.999 545.1L396.999 533.8L410.299 537.3L421.999 533.8H473.499L439.799 573.6L407.699 575.2L373.999 545.1Z" fill="#626262"/>
<path d="M389.199 547.2L450.799 544.9L435.999 556.6H395.499L389.199 547.2Z" fill="white"/>
<path d="M682.699 242.2L618.699 207L613.499 159.1L563.899 117.6L503.199 130.3L493.799 169.1L404.999 174.9L355.599 147.7L312.299 169.5L302.999 219.5L323.599 269.3L308.099 297L440.699 302.1L557.199 385.8L604.299 359L655.399 470.8L686.499 504.2L664.599 546.2L600.199 581.3L494.099 598.4L391.299 602.7L324.699 501.4V453.4L303.299 396.7L300.099 311.4L253.099 395.2L225.299 554.5L281.999 646.1L329.199 629.2L541.599 624.6L601.999 638.1L725.999 564.1L730.399 431.5L682.699 242.2Z" fill="#606060"/>
<path d="M306.399 297L299.999 310.1L300.099 311.4L308.099 297H306.399Z" fill="#606060"/>
<path d="M618.699 207L600.499 216.6L596.499 162.1L550.499 121.1L563.899 117.6L613.499 159.1L618.699 207Z" fill="#4B4B4B"/>
<path d="M345.899 152.6L377.099 179.7L389.999 166.6L355.599 147.7L345.899 152.6Z" fill="#4B4B4B"/>
<path d="M224.099 388.3L254.399 304.5L307.299 297.4L262.999 377.4L224.099 388.3Z" fill="#606060"/>
<path d="M557.199 385.8L440.699 302.1L309.299 296.9L254.399 304.5L402.899 153.5L486.899 148.8L567.699 230.8L646.999 245.5L672.499 298.3L670.999 357.5L645.999 378.1L604.299 359L557.199 385.8Z" fill="white"/>
<path d="M600.199 581.3L617.299 549.6L659.599 521.7L655.399 470.8L686.499 504.2L664.599 546.2L600.199 581.3Z" fill="#4B4B4B"/>
<path d="M329.199 629.2L391.699 602.1L494.099 598.4L541.599 624.6L329.199 629.2Z" fill="#4B4B4B"/>
<path d="M391.699 602.1L300.999 602.9L225.299 554.5L253.099 395.2L299.999 310.1L303.299 396.7L324.699 453.4V501.4L391.699 602.1Z" fill="#4B4B4B"/>
<path d="M513.999 168.1L497.999 207.1L514.999 227.1L569.999 216.1L513.999 168.1Z" fill="#606060"/>
<path d="M598.999 289.1L624.999 303.1L649.999 291.1L643.999 321.1L613.999 328.1L576.999 295.1L583.999 272.1L597.999 269.1L598.999 289.1Z" fill="#D5D5D5"/>
<path d="M607.999 280.1L619.999 288.1L634.999 283.1L625.999 270.1L608.999 269.1L607.999 280.1Z" fill="#606060"/>
<path d="M391.699 602.1L399.299 594.4L363.299 559.1L371.599 554.1L345.299 530.1L324.699 501.4L325.099 485.1H341.599L324.699 453.4L323.599 368.1L373.099 315.6L386.599 374.1L416.599 429.6L424.099 365.1L445.099 342.6L518.599 390.6L529.099 464.1L506.599 497.1L542.599 501.6L527.999 542.4L468.799 599.6L494.099 598.4L544.999 590.1L601.299 581.4L617.299 549.6L659.599 521.7L655.399 470.8L604.299 359L557.199 385.8L440.699 302.1L306.399 297L299.999 310.1L272.599 398.1L293.599 453.6L296.599 551.1L321.699 602.4L391.699 602.1Z" fill="#00E1FF"/>
<path d="M601.999 316.1L555.999 336.7L461.999 277.4L283.299 274.7L294.699 264.7L465.999 266.7L554.699 324.1L597.299 306.1L601.999 316.1Z" fill="#D5D5D5"/>
<path d="M645.999 378.1L680.699 459.4L708.699 497.4L697.299 557.4L541.599 624.6L533.999 620.1L689.999 551.4L700.699 499.4L673.299 464.1L633.899 372.6L645.999 378.1Z" fill="#D5D5D5"/>
<path d="M245.599 587.3L284.399 619.2L341.099 623.9L329.199 629.2L281.999 626.1L253.299 599.8L245.599 587.3Z" fill="#D5D5D5"/>
<path d="M364.199 646.8L360.399 519.9L386.299 478.6L440.199 473.7L486.299 516.1L505.599 640.1L364.199 646.8Z" fill="#606060"/>
<path d="M383.499 538.8L454.599 534.3L457.499 545.1L384.399 549.6L383.499 538.8Z" fill="#4B4B4B"/>
<path d="M385.399 561.4L456.499 556.9L459.399 567.7L386.299 572.2L385.399 561.4Z" fill="#4B4B4B"/>
<path d="M387.299 585.7L458.499 581.2L461.299 592L388.299 596.5L387.299 585.7Z" fill="#4B4B4B"/>
<path d="M391.199 610L462.299 605.5L465.199 616.4L392.099 620.9L391.199 610Z" fill="#4B4B4B"/>
<path d="M568.999 414.1L591.199 485.3L576.699 541.1L548.799 558.4L593.999 565.1L604.599 488.2L618.999 524.7L626.699 475.7L568.999 414.1Z" fill="white"/>
<path d="M308.499 501.6L318.999 547.8L348.799 568.9L310.399 565.1L308.499 501.6Z" fill="white"/>
<path d="M473.999 236.1L482.999 245.1L465.999 255.1L460.999 252.1L473.999 236.1Z" fill="#606060"/>
</g>
<defs>
<clipPath id="clip0_110_317">
<rect width="854" height="852" fill="white"/>
</clipPath>
</defs>
</svg>
