<svg width="854" height="852" viewBox="0 0 854 852" fill="none" xmlns="http://www.w3.org/2000/svg">
<g clip-path="url(#clip0_110_484)">
<path d="M200.199 683.5L230.999 562.2L211.899 552.5L160.499 672L203.499 832.5C221.399 817.1 238.799 802.1 255.599 786.6L200.199 683.5Z" fill="#4B4B4B"/>
<path d="M738.699 522.5L718.699 534.8L767.199 652.5L707.599 768.5C728.099 790.1 749.199 810.2 771.899 828.6L827.399 669.2L738.699 522.5Z" fill="#4B4B4B"/>
<path d="M590.899 229.6L749.499 354.7L735.999 381.4L605.999 322.7L590.899 229.6Z" fill="#4B4B4B"/>
<path d="M333.499 229.6L174.899 354.7L188.399 381.4L318.399 322.7L333.499 229.6Z" fill="#4B4B4B"/>
<path d="M405.999 561.9V625.5L268.999 705.1L174.899 852.1H776.899L759.199 746.2L647.799 639.8L557.499 597.8V470.1L405.999 561.9Z" fill="#D5D5D5"/>
<path d="M800.999 796.8L768.799 803.7L764.499 778.2L782.099 784.5L750.899 694.9L700.499 691.3L640.999 638.6L652.199 633.6L566.999 573.2L421.899 660L345.999 643.1L318.899 668.4L313.299 646.2L225.899 716L233.899 731.3L203.999 752.1L207.099 783.9L174.899 811.8L177.499 827.6L158.499 852H475.599L475.899 852.1V852H513.499H543.499V852.1H812.299L800.999 796.8Z" fill="#D5D5D5"/>
<path d="M782.099 784.5L683.999 757.6H619.599L690.399 749.1L776.899 769.4L782.099 784.5Z" fill="#AAAAAA"/>
<path d="M207.099 783.9L256.999 823.9L203.999 752.1L207.099 783.9Z" fill="#AAAAAA"/>
<path d="M233.899 731.3L247.999 752.1L336.999 731.3L345.999 787.5L485.399 778.5L343.799 804.8L320.999 749.1L245.999 766.8L233.899 731.3Z" fill="#AAAAAA"/>
<path d="M437.999 738L652.199 633.6V648.5L522.199 712.6L437.999 738Z" fill="#AAAAAA"/>
<path d="M768.799 803.7L644.999 828.1L580.999 820.1H644.999L767.499 795.7L768.799 803.7Z" fill="#AAAAAA"/>
<path d="M177.499 827.6L256.999 843.1L174.899 811.8L177.499 827.6Z" fill="#AAAAAA"/>
<path d="M336.999 731.3L421.899 712.6L320.999 749.1L336.999 731.3Z" fill="#AAAAAA"/>
<path d="M268.999 705.1L308.499 828.3L388.899 801.3L392.499 629.7L278.999 679.1L268.999 705.1Z" fill="white"/>
<path d="M545.999 597.8H557.499L677.999 653.1L690.399 680.4L561.399 833.1L474.399 801.1L545.999 597.8Z" fill="white"/>
<path d="M314.999 774.2L333.499 852.1H387.999L368.199 757.6L314.999 774.2Z" fill="#4B4B4B"/>
<path d="M518.599 757.6L476.999 852.1H536.999L567.399 775.6L518.599 757.6Z" fill="#4B4B4B"/>
<path d="M308.499 828.3L388.899 801.3L392.499 629.7L399.699 809.6L317.399 835.8L308.499 828.3Z" fill="#4B4B4B"/>
<path d="M473.999 800.9L558.899 831.9L690.399 680.4L560.699 847.2L475.899 817.6L473.999 800.9Z" fill="#4B4B4B"/>
<path d="M580.999 610.1L594.199 585.1L644.999 605.1L626.899 629.7L580.999 610.1Z" fill="#4B4B4B"/>
<path d="M301.199 669.4L293.999 649.1L336.999 629.7L341.899 651.7L301.199 669.4Z" fill="#4B4B4B"/>
<path d="M812.299 789.9L834.999 852.1H683.999L733.199 807.4L812.299 789.9Z" fill="white"/>
<path d="M145.799 796.1L213.199 811.9L238.799 852L116.699 852.1L145.799 796.1Z" fill="white"/>
<path d="M624.399 332.7L606.799 217.5L483.099 150.1L341.199 165.9L265.199 277L268.099 416L289.999 522.2L365.999 571.5L345.999 625.1L415.899 625.5L478.599 575.7L494.299 615.2L557.499 578.9L559.599 503.4L559.399 503.6L593.999 455.5L624.399 332.7Z" fill="#4B4B4B"/>
<path d="M584.799 405.4L470.899 447.5L482.999 385.1L455.999 341.6L484.199 243.9L683.999 116.9L608.399 110.9L387.299 234.7L291.099 249.2L346.799 122.1L294.599 146.6L234.899 281.1V357.2L222.599 410.4L247.399 466.9L244.199 501.5L273.599 555.1L306.499 561L333.799 596.2L384.999 594L392.499 582.2L402.199 593.2L416.499 592.6L421.899 552.2L486.699 531.8L590.199 416.7L584.799 405.4Z" fill="white"/>
<path d="M341.899 425.1L381.199 481.3L451.499 484.4L457.499 426L421.999 392.1L341.899 425.1Z" fill="#4B4B4B"/>
<path d="M513.499 572.8L495.199 601.3L406.399 661.1L362.899 656.2L345.999 625.1L416.899 623.6L475.899 574.7L486.999 542.8L501.899 529L513.499 572.8Z" fill="white"/>
<path d="M359.299 650.7L411.699 653.1L494.299 601.7L557.499 578.9L415.499 675.9L357.999 669.1L359.299 650.7Z" fill="#4B4B4B"/>
<path d="M530.499 287.8L532.799 321L635.099 353.4L649.899 316L622.699 235.3L530.499 287.8Z" fill="#D5D5D5"/>
<path d="M315.199 460.1L318.699 522.2H372.499L328.299 460.1H315.199Z" fill="#4B4B4B"/>
<path d="M309.999 426V482.1L261.299 494.1L241.999 439.4L251.999 411.1L309.999 426Z" fill="#4B4B4B"/>
<path d="M508.199 277L491.699 313L514.499 343.9L552.199 339L559.599 297.6L541.399 274.6L508.199 277Z" fill="#626262"/>
<path d="M385.699 447.7L396.199 419.9L422.999 412.8L443.899 431.5L440.999 457.7L412.999 469.3L385.699 447.7Z" fill="#FF4800"/>
<path d="M364.599 238.1L387.299 234.7L452.999 60.0999L499.999 81.4999V159.3L511.199 165.4L512.599 70.1999L440.099 38.8999L364.599 238.1Z" fill="#626262"/>
<path d="M291.699 249.1L377.899 51.0999L470.899 81.4999V151.4L457.499 152.9L457.899 91.8999L388.099 69.8999L311.299 246.1L291.699 249.1Z" fill="#626262"/>
<path d="M615.999 366.6L644.999 401.8V484.4L607.199 601.7L599.499 596.2L636.999 484.4L637.699 406.1L613.299 377.5L615.999 366.6Z" fill="#4B4B4B"/>
<path d="M620.399 348.8L635.099 353.4L683.999 411.1V529.3L623.799 613.4L616.199 608L674.699 527.1L677.199 415.1L620.399 348.8Z" fill="#4B4B4B"/>
<path d="M683.999 116.9L356.699 324.1L268.999 334.1L234.899 281.1V294.4L265.199 353.6L361.999 343.9L683.999 116.9Z" fill="#D5D5D5"/>
<path d="M306.499 561L294.999 544.7H267.899L273.599 555.1L306.499 561Z" fill="#D5D5D5"/>
<path d="M421.899 552.2L416.499 592.6L433.799 548.4L486.699 531.8L590.199 416.7L587.899 412.8L478.699 517.8L424.699 533.1L421.899 552.2Z" fill="#D5D5D5"/>
<path d="M525.699 342.5L591.799 395.7L596.199 482.4L562.799 504.9L525.699 488.4L517.299 497.7L563.599 519.9L608.399 490.3L602.799 388.6L540.299 340.5L525.699 342.5Z" fill="#D5D5D5"/>
<path d="M326.499 638.8L300.999 585.1L306.499 561L297.499 559.4L291.699 585.1L322.699 649.5L326.499 638.8Z" fill="#4B4B4B"/>
<path d="M313.299 646.2L276.999 596.1L282.199 556.6L273.599 555.1L268.999 600.6L306.499 651.5L313.299 646.2Z" fill="#4B4B4B"/>
<path d="M250.699 513.4L241.999 519.9L217.999 494.1L233.899 436.1L227.899 422.4L203.999 494.1L241.999 537.2L257.499 525.7L250.699 513.4Z" fill="#D5D5D5"/>
<path d="M599.499 552.2V539.6L557.499 516.9L543.399 588.5L599.499 552.2Z" fill="white"/>
<path d="M269.799 405.4L265.199 422.4L281.499 427.9L286.499 412.8L269.799 405.4Z" fill="#D5D5D5"/>
<path d="M365.899 406.5L373.199 419.4L395.299 409.5L386.699 394.4L365.899 406.5Z" fill="#D5D5D5"/>
<path d="M613.699 258.7L632.499 316.7L654.399 284.4L644.099 253.1L613.699 258.7Z" fill="white"/>
<path d="M265.199 353.6L247.499 360.1L268.999 334.1L265.199 353.6Z" fill="#D5D5D5"/>
<path d="M361.999 343.9L408.999 345.8L356.699 324.1L361.999 343.9Z" fill="#D5D5D5"/>
</g>
<defs>
<clipPath id="clip0_110_484">
<rect width="854" height="852" fill="white"/>
</clipPath>
</defs>
</svg>
