<svg viewBox="0 0 854 853" fill="none" xmlns="http://www.w3.org/2000/svg">
	
    <g id="svgBody">
        <path d="M595 512H589.5V532.5H595V512Z" fill="#D8D8D8"/>
        <path d="M595 536.1H589.5V556.1H595V536.1Z" fill="#D8D8D8"/>
        <path d="M778.4 623C766.8 606.9 748.9 606.4 729.9 605.8C720 605.5 709.8 605.2 699.4 602.8C683.6 599.2 677.5 587.5 670.9 575.1C666 565.7 660.9 556 651.7 550.4C631.7 538.1 596.5 537.6 595 537.6V551.1C595.3 551.1 628.6 551.6 646 562.3C652.4 566.2 656.2 573.6 660.7 582.1C667.5 595.1 676 611.4 697 616.1C708.4 618.7 719.6 619 729.5 619.3C746.4 619.8 761 620.3 769.1 631.6C781.1 648.2 767.4 679.9 730.6 718.8L739.7 727.6C783 682.1 795.3 646.5 778.4 623Z" fill="#DBDBDB"/>
        <path d="M724 660.7C723.2 648.3 716.7 637.1 704.8 627.4C674.2 602.7 676.3 586.7 681.5 548C684.6 524.9 673.9 514.2 667.2 509.9C653.9 501.2 634.4 503 625.9 510.5C618.5 516.9 601 516.6 595.1 516V530.2C596.1 530.3 620.7 532 633.1 521.2C637.1 517.7 651.3 515.1 661.3 521.6C668.4 526.2 671.3 534.4 669.7 546C664.3 586.6 661.3 608.9 697.9 638.5C706.8 645.7 711.6 653.5 712.2 661.7C713 674.1 704.1 684.4 699 688.7L708.1 697.4C714.3 691.7 725.2 679.2 724 660.7Z" fill="#DBDBDB"/>
        <path d="M406 561.9V625.5L269 705.1L174.9 852.1H776.9L759.2 746.2L647.8 639.8L557.5 597.8V470.1L406 561.9Z" fill="white"/>
        <path d="M417.1 625.5L528.8 535.8V545.2L444.4 625.5H417.1Z" fill="#787878"/>
        <path d="M546 508.2L568.5 481.1L589.5 508.2V564.5L567.8 597.8L546 570.8V508.2Z" fill="#626262"/>
        <path d="M549.9 481.1H568.5L546 508.2V570.8L567.8 597.8H546L528.8 572.9V507.6L549.9 481.1Z" fill="#484D49"/>
        <path d="M572.4 514.1H562.3V563.7H572.4V514.1Z" fill="white"/>
        <path d="M402.2 624.9L362.5 711.9L348.8 852L254 852.1L269 705.1L308 611.9L389.4 597.8L402.2 624.9Z" fill="#E3E3E3"/>
        <path d="M555.7 589.9L526.6 702.6L509 852.1H599.2L622.4 741.8L647.8 639.8L653 611.9L555.7 589.9Z" fill="#E3E3E3"/>
        <path d="M653 611.9L665.1 656.3L630.4 762L619.1 852.1H599.2L619.1 734L653 611.9Z" fill="#B9B9B9"/>
        <path d="M721.2 748.1L760.5 732L786 740L816 852.1L710 852L721.2 748.1Z" fill="#B9B9B9"/>
        <path d="M738.7 758.7L786 740L816 852.1L748 852L738.7 758.7Z" fill="#E3E3E3"/>
        <path d="M244.2 743.8L229.1 732L150 852.1H174.9L244.2 743.8Z" fill="#B9B9B9"/>
        <path d="M229.1 732L254 728.5L244.2 743.8L229.1 732Z" fill="#4B4B4B"/>
        <path fill-rule="evenodd" clip-rule="evenodd" d="M383 685.4L407.85 628.05L389.4 597.8L348.8 709.7L333.5 852.1L354 852L369.3 716.7L383 685.4Z" fill="#B9B9B9"/>
        <path d="M550.7 609.1L487.2 657.5L426.3 658.3L407.85 628.05L383 685.4L531 685.4L550.7 609.1Z" fill="#787878"/>
    </g>

    <g id="svgHead">
        <path d="M562.3 481.1L587.3 481.2L624.4 412.8L607.6 385.4L624.4 332.7L606.8 217.5L483.1 150.1L341.2 165.9L265.2 277L268.1 416L288.7 452.1L299.4 531.1L364.5 623.3L415.9 625.5L546 522.2L562.3 481.1Z" fill="white"/>
        <path d="M596.6 211.9L472.6 227.3L428 305.4L299.2 310.8L289.7 241.3L282.3 252.1L291.8 317.3L430.9 312.2L479.2 235.1L606.8 217.5L596.6 211.9Z" fill="#D8D8D8"/>
        <path d="M447.8 401.5L303.2 404L284 430.6L293.1 451.4L459.5 457.4L477.5 433.8L447.8 401.5Z" fill="#D8D8D8"/>
        <path d="M444.5 441.3L433.5 423.3L309.7 422.3L300.7 439.2L408.6 440.8L408.4 441.4L444.5 441.3Z" fill="#00A6FD"/>
        <path d="M624.4 332.7L623.2 324.5L509 387.8L536.3 435.7L444.5 522.2L403.9 483.8L317.7 481.1L314.6 489L399 490.7L444.8 534.9L538.4 442.9L522.2 541.2L528.8 535.8L544 438.1L520 391.6L624.4 332.7Z" fill="#D8D8D8"/>
        <path d="M597 412.8L574.6 460.4H583.9L603.3 416.1L597 412.8Z" fill="#D8D8D8"/>
        <path d="M555.3 189.4L562 184.1L582.7 194.7V204.3L555.3 189.4Z" fill="#D8D8D8"/>
        <path d="M542 182.1L545.3 175.4L525.3 163.4L518.3 169.3L542 182.1Z" fill="#D8D8D8"/>
        <path d="M528.8 165.3L540.2 155.9L607.2 150.1L654.6 182.5L700.6 477L686 522.2L682.8 520.8L689.9 475.5L643.9 192L602 164.8L547.8 169L542 173.4L528.8 165.3Z" fill="black"/>
        <path d="M567.5 186.8L576.7 179.1L657.2 164L693.9 182.5L721.2 406.3L671.9 487.2L667.2 484.3L709.9 401.9L683.2 192.8L656.6 178L582.2 190.7L579.3 193L567.5 186.8Z" fill="black"/>
        <path d="M394.7 159.8L311.1 148.6L263.8 178L217.8 444.6L238.4 502.6H242.4L228.4 443.3L274.4 186.6L316.3 162L350.1 164.9L394.7 159.8Z" fill="black"/>
        <path d="M335.7 174L261.1 161.3L224.4 178L197.1 380.6L246.4 453.9L251.1 451.2L208.4 376.6L235.1 187.3L261.8 174L328.1 185.1L335.7 174Z" fill="black"/>
    </g>
		
</svg>