<svg viewBox="0 0 854 853" fill="none" xmlns="http://www.w3.org/2000/svg">
	
    <g id="svgBody">
        <path d="M595 512H589.5V532.5H595V512Z" fill="#D8D8D8"/>
        <path d="M595 536.1H589.5V556.1H595V536.1Z" fill="#D8D8D8"/>
        <path d="M778.4 623C766.8 606.9 748.9 606.4 729.9 605.8C720 605.5 709.8 605.2 699.4 602.8C683.6 599.2 677.5 587.5 670.9 575.1C666 565.7 660.9 556 651.7 550.4C631.7 538.1 596.5 537.6 595 537.6V551.1C595.3 551.1 628.6 551.6 646 562.3C652.4 566.2 656.2 573.6 660.7 582.1C667.5 595.1 676 611.4 697 616.1C708.4 618.7 719.6 619 729.5 619.3C746.4 619.8 761 620.3 769.1 631.6C781.1 648.2 767.4 679.9 730.6 718.8L739.7 727.6C783 682.1 795.3 646.5 778.4 623Z" fill="#787878"/>
        <path d="M724 660.7C723.2 648.3 716.7 637.1 704.8 627.4C674.2 602.7 676.3 586.7 681.5 548C684.6 524.9 673.9 514.2 667.2 509.9C653.9 501.2 634.4 503 625.9 510.5C618.5 516.9 601 516.6 595.1 516V530.2C596.1 530.3 620.7 532 633.1 521.2C637.1 517.7 651.3 515.1 661.3 521.6C668.4 526.2 671.3 534.4 669.7 546C664.3 586.6 661.3 608.9 697.9 638.5C706.8 645.7 711.6 653.5 712.2 661.7C713 674.1 704.1 684.4 699 688.7L708.1 697.4C714.3 691.7 725.2 679.2 724 660.7Z" fill="#787878"/>
        <path d="M406 561.9V625.5L269 705.1L174.9 852.1H776.9L759.2 746.2L647.8 639.8L557.5 597.8V470.1L406 561.9Z" fill="white"/>
        <path d="M417.1 625.5L528.8 535.8V545.2L444.4 625.5H417.1Z" fill="#787878"/>
        <path d="M546 508.2L568.5 481.1L589.5 508.2V564.5L567.8 597.8L546 570.8V508.2Z" fill="#626262"/>
        <path d="M549.9 481.1H568.5L546 508.2V570.8L567.8 597.8H546L528.8 572.9V507.6L549.9 481.1Z" fill="#484D49"/>
        <path d="M572.4 514.1H562.3V563.7H572.4V514.1Z" fill="white"/>
        <path d="M636 610.1L736 678.1L636 802.1L518.9 831.3L497 814.1L508 693.4L636 610.1Z" fill="#626262"/>
        <path d="M348.2 625.5L410 697.3V805.3L394.6 831.3L293.3 802.1L265.2 676.1L348.2 625.5Z" fill="#626262"/>
        <path d="M394.6 831.3L410 805.3V697.3L348.2 625.5H403.3L379.1 641.1L420 689.4L424 806.1L406 831.3H394.6Z" fill="#484D49"/>
        <path d="M518.9 831.3L636 802.1L736 678.1L732.6 720.7L724.1 712.6L645.3 814.1L525.3 837.4L518.9 831.3Z" fill="#484D49"/>
        <path d="M528.6 712.3L612.7 779.4L595 784.7L528.6 734.3V712.3Z" fill="#787878"/>
        <path d="M524.8 756.7L573.1 791L558.7 796.3L524.6 772.1L524.8 756.7Z" fill="#787878"/>
        <path d="M307.1 782.6L377.1 706.7L378 733.4L327.1 787.8L307.1 782.6Z" fill="#787878"/>
        <path d="M348.2 791.8L380.6 754.1L383.7 775L363.8 796.9L348.2 791.8Z" fill="#787878"/>
        <path d="M420 689.4L508 693.4L497 814.1L424 806.1L420 689.4Z" fill="#787878"/>
        <path d="M293.3 802.1L394.6 831.3H406V853.1L280.3 852.1L293.3 802.1Z" fill="#787878"/>
        <path d="M525.3 837.4V853.1H659.5L645.3 814.1L525.3 837.4Z" fill="#787878"/>
    </g>

    <g id="svgHead">
        <path d="M562.3 481.1L587.3 481.2L624.4 412.8L607.6 385.4L624.4 332.7L606.8 217.5L483.1 150.1L341.2 165.9L265.2 277L268.1 416L288.7 452.1L299.4 531.1L364.5 623.3L415.9 625.5L546 522.2L562.3 481.1Z" fill="white"/>
        <path d="M375.1 96.1001L289 271.1L309.9 512.6L407.9 516.6L486 266.1L555 96.1001H375.1Z" fill="#D8D8D8"/>
        <path d="M309.9 512.6L317.1 522.6L417.9 528.3L503 272.1L562.3 193.2L548.7 162.1L568.5 111.1L555 96.1001L486 266.1L407.9 516.6L309.9 512.6Z" fill="#787878"/>
        <path d="M339 547.2L425 551.9V560.7L339 555.8V547.2Z" fill="#D8D8D8"/>
        <path d="M346.5 565.6L415.9 569.7V578.6L346.5 574.2V565.6Z" fill="#D8D8D8"/>
        <path d="M352.7 584.4L411.3 587.6V596.4L352.7 593V584.4Z" fill="#D8D8D8"/>
        <path d="M592.3 410.1L571.5 459.9H583L604.3 417.7L592.3 410.1Z" fill="#D8D8D8"/>
        <path d="M366.3 462.1L324.1 446L320.7 400.9L359.5 372L401.7 388L405.1 433.1L366.3 462.1Z" fill="white"/>
        <path d="M358.1 455.2L327.2 438.5L328.2 403.4L360 385.1L390.8 401.8L389.9 436.8L358.1 455.2Z" fill="#CBFF5B"/>
    </g>
		
</svg>
