<svg viewBox="0 0 854 853" fill="none" xmlns="http://www.w3.org/2000/svg">
	
    <g id="svgBody">
        <path d="M674.599 676.5L690.199 662L688.499 655.3L700.699 631.5L732.899 633.9L736.899 610.1L777.299 551.3L774.599 530.9L796.699 513.9L826.399 516.7L832.799 527.8L750.399 660.4L755.299 681.5L727.199 724.9L674.599 676.5Z" fill="#4B4B4B"/>
        <path d="M260.699 738.9L252.599 719.2L245.699 718.5L227.799 698.7L241.299 669.4L220.399 657.3L179.499 598.9L159.399 594.2L151.199 567.6L164.299 540.8L176.899 538.6L272.199 662.3L293.699 665.1L324.499 706.6L260.699 738.9Z" fill="#4B4B4B"/>
        <path d="M179.099 852L245.999 737.2L450.799 614.4L429.099 563.5L563.299 412.1L577.999 584.6L784.599 748.3L814.099 852.1L179.099 852Z" fill="#D5D5D5"/>
        <path d="M445.399 601.6L570.699 502.1L469.299 640.1L445.299 624.1L445.399 601.6Z" fill="#7F7F7F"/>
        <path d="M397.099 641.1L440.599 690.6L439.099 710.1L482.599 711.6L487.099 695.1L626.599 624.6L538.099 606.6L391.099 620.1L397.099 641.1Z" fill="#4B4B4B"/>
        <path d="M254.099 852.1L322.999 768.1L369.999 663.1L398.699 645.2L356.999 764.1L554.999 773.1L627.499 623.6L657.999 648.1L599.999 785.1L701.899 852.2L254.099 852.1Z" fill="#606060"/>
        <path d="M472.999 737.1L439.999 740.1L407.999 764.1L414.999 799.1L476.999 805.1L500.999 770.1L472.999 737.1ZM465.999 790.1L429.999 785.1L424.999 770.1L442.999 749.1L464.999 748.1L481.999 772.1L465.999 790.1Z" fill="white"/>
        <path d="M664.199 824.8L665.199 801.2L648.799 775.7L619.299 776.3L607.799 819.3L633.999 840.5L664.199 824.8ZM621.399 813.4L629.299 788.6L642.199 786.9L657.599 802.2L656.099 817.8L634.599 826.8L621.399 813.4Z" fill="white"/>
        <path d="M280.099 794.1L287.199 810L307.899 821.1L329.699 810.4L323.899 778.1L297.299 773.3L280.099 794.1ZM315.899 786.8L318.299 805.9L309.299 811.5L292.699 806.8L288.599 796L301.599 782.6L315.899 786.8Z" fill="white"/>
        <path d="M474.299 766.7L657.999 648.1L649.299 640.9L468.299 757.1L474.299 766.7Z" fill="#4B4B4B"/>
        <path d="M439.999 758.1L377.999 658.1L369.999 663.1L431.999 768.1L439.999 758.1Z" fill="#4B4B4B"/>
        <path d="M438.999 782.1L421.999 851.1L439.999 852.1L452.999 782.1H438.999Z" fill="#4B4B4B"/>
        <path d="M697.899 659.3L642.999 743.1L666.999 767.1L755.999 708.1L697.899 659.3Z" fill="#606060"/>
        <path d="M780.999 725.1L687.999 794.1L701.999 822.1L833.999 804.1L780.999 725.1Z" fill="#606060"/>
        <path d="M659.999 736.7L660.299 744.7L668.699 748.7L675.299 741.7L668.699 735.1L659.999 736.7Z" fill="white"/>
        <path d="M706.899 793.7L703.299 800.5L708.699 807.7L717.299 804.8L716.399 795.2L706.899 793.7Z" fill="white"/>
        <path d="M645.699 794.1L750.299 720.7L758.699 728.1L652.299 802.7L645.699 794.1Z" fill="#4B4B4B"/>
        <path d="M640.699 823.1L655.999 852.4H667.699L648.699 818.4L640.699 823.1Z" fill="#4B4B4B"/>
        <path d="M468.299 785.1L624.999 809.4L628.299 798.7L474.299 776.4L468.299 785.1Z" fill="#4B4B4B"/>
        <path d="M258.299 811.8L169.999 806.1L238.299 724.7L271.399 793.4L258.299 811.8Z" fill="#606060"/>
        <path d="M268.099 700.7L292.099 751.6L317.099 735.3L322.899 668.9L268.099 700.7Z" fill="#606060"/>
        <path d="M314.199 794.9L428.699 771.8L431.499 780.5L315.299 803.1L314.199 794.9Z" fill="#4B4B4B"/>
        <path d="M303.299 808.7L291.299 852.1H281.299L297.299 805.4L303.299 808.7Z" fill="#4B4B4B"/>
        <path d="M294.299 794.4L255.599 731.2L261.799 727.6L298.999 789.7L294.299 794.4Z" fill="#4B4B4B"/>
        <path d="M307.199 726.6L306.099 732.9L298.399 735.1L293.299 728.8L299.799 724.3L307.199 726.6Z" fill="white"/>
        <path d="M257.699 789.3L259.999 795.1L254.799 800.2L247.899 797L249.699 789.4L257.699 789.3Z" fill="white"/>
    </g>

    <g id="svgHead">
        <path d="M581.3 490.4L456.6 623.9L407.9 625L324.5 500.5V452L303.7 396L299.6 298.6L371.3 199.7L474.6 166.2L597 212.3L635.2 314.7L629.2 383.4L655.2 389.1L666.2 421.2L608.1 493.4L581.3 490.4Z" fill="#D5D5D5"/>
        <path d="M433.1 430.1L477.9 409.8L514.4 441.7L435.9 450.4L433.1 430.1Z" fill="white"/>
        <path d="M420 435.7L479 408.1L514.4 419.1H493.1L514.4 441.7L479 421.1L420 435.7Z" fill="black"/>
        <path d="M371.3 451.9L321.3 450.5L332.7 426.2L368.8 437.3L371.3 451.9Z" fill="white"/>
        <path d="M378 439.1L334.6 429.5L321.3 450.5L327.4 429.1L313.7 430.1L330.3 419.1L378 439.1Z" fill="black"/>
        <path d="M373.5 418.5L366.7 405.9L303.7 393.2L373.5 418.5Z" fill="black"/>
        <path d="M410.3 417.3L512.4 386.7L417.9 403.7L410.3 417.3Z" fill="black"/>
        <path d="M374 545.1L397 533.8L410.3 537.3L422 533.8H473.5L439.8 573.6L407.7 575.2L374 545.1Z" fill="#626262"/>
        <path d="M389.2 547.2L450.8 544.9L436 556.6H395.5L389.2 547.2Z" fill="white"/>
        <path d="M682.7 242.2L618.7 207L613.5 159.1L563.9 117.6L503.2 130.3L493.8 169.1L405 174.9L355.6 147.7L312.3 169.5L303 219.5L323.6 269.3L308.1 297L440.7 302.1L557.2 385.8L604.3 359L655.4 470.8L686.5 504.2L664.6 546.2L600.2 581.3L494.1 598.4L391.3 602.7L324.7 501.4V453.4L303.3 396.7L300.1 311.4L253.1 395.2L225.3 554.5L282 646.1L329.2 629.2L541.6 624.6L602 638.1L726 564.1L730.4 431.5L682.7 242.2Z" fill="#606060"/>
        <path d="M306.4 297L300 310.1L300.1 311.4L308.1 297H306.4Z" fill="#606060"/>
        <path d="M618.7 207L600.5 216.6L596.5 162.1L550.5 121.1L563.9 117.6L613.5 159.1L618.7 207Z" fill="#4B4B4B"/>
        <path d="M345.9 152.6L377.1 179.7L390 166.6L355.6 147.7L345.9 152.6Z" fill="#4B4B4B"/>
        <path d="M224.1 388.3L254.4 304.5L307.3 297.4L263 377.4L224.1 388.3Z" fill="#606060"/>
        <path d="M557.2 385.8L440.7 302.1L309.3 296.9L254.4 304.5L402.9 153.5L486.9 148.8L567.7 230.8L647 245.5L672.5 298.3L671 357.5L646 378.1L604.3 359L557.2 385.8Z" fill="white"/>
        <path d="M600.2 581.3L617.3 549.6L659.6 521.7L655.4 470.8L686.5 504.2L664.6 546.2L600.2 581.3Z" fill="#4B4B4B"/>
        <path d="M329.2 629.2L391.7 602.1L494.1 598.4L541.6 624.6L329.2 629.2Z" fill="#4B4B4B"/>
        <path d="M391.7 602.1L301 602.9L225.3 554.5L253.1 395.2L300 310.1L303.3 396.7L324.7 453.4V501.4L391.7 602.1Z" fill="#4B4B4B"/>
        <path d="M514 168.1L498 207.1L515 227.1L570 216.1L514 168.1Z" fill="#606060"/>
        <path d="M599 289.1L625 303.1L650 291.1L644 321.1L614 328.1L577 295.1L584 272.1L598 269.1L599 289.1Z" fill="#D5D5D5"/>
        <path d="M608 280.1L620 288.1L635 283.1L626 270.1L609 269.1L608 280.1Z" fill="#606060"/>
        <path d="M391.7 602.1L399.3 594.4L363.3 559.1L371.6 554.1L345.3 530.1L324.7 501.4L325.1 485.1H341.6L324.7 453.4L323.6 368.1L373.1 315.6L386.6 374.1L416.6 429.6L424.1 365.1L445.1 342.6L518.6 390.6L529.1 464.1L506.6 497.1L542.6 501.6L528 542.4L468.8 599.6L494.1 598.4L545 590.1L601.3 581.4L617.3 549.6L659.6 521.7L655.4 470.8L604.3 359L557.2 385.8L440.7 302.1L306.4 297L300 310.1L272.6 398.1L293.6 453.6L296.6 551.1L321.7 602.4L391.7 602.1Z" fill="#00E1FF"/>
        <path d="M602 316.1L556 336.7L462 277.4L283.3 274.7L294.7 264.7L466 266.7L554.7 324.1L597.3 306.1L602 316.1Z" fill="#D5D5D5"/>
        <path d="M646 378.1L680.7 459.4L708.7 497.4L697.3 557.4L541.6 624.6L534 620.1L690 551.4L700.7 499.4L673.3 464.1L633.9 372.6L646 378.1Z" fill="#D5D5D5"/>
        <path d="M245.6 587.3L284.4 619.2L341.1 623.9L329.2 629.2L282 626.1L253.3 599.8L245.6 587.3Z" fill="#D5D5D5"/>
        <path d="M364.2 646.8L360.4 519.9L386.3 478.6L440.2 473.7L486.3 516.1L505.6 640.1L364.2 646.8Z" fill="#606060"/>
        <path d="M383.5 538.8L454.6 534.3L457.5 545.1L384.4 549.6L383.5 538.8Z" fill="#4B4B4B"/>
        <path d="M385.4 561.4L456.5 556.9L459.4 567.7L386.3 572.2L385.4 561.4Z" fill="#4B4B4B"/>
        <path d="M387.3 585.7L458.5 581.2L461.3 592L388.3 596.5L387.3 585.7Z" fill="#4B4B4B"/>
        <path d="M391.2 610L462.3 605.5L465.2 616.4L392.1 620.9L391.2 610Z" fill="#4B4B4B"/>
        <path d="M569 414.1L591.2 485.3L576.7 541.1L548.8 558.4L594 565.1L604.6 488.2L619 524.7L626.7 475.7L569 414.1Z" fill="white"/>
        <path d="M308.5 501.6L319 547.8L348.8 568.9L310.4 565.1L308.5 501.6Z" fill="white"/>
        <path d="M474 236.1L483 245.1L466 255.1L461 252.1L474 236.1Z" fill="#606060"/>
    </g>
		
</svg>