<svg viewBox="0 0 854 853" fill="none" xmlns="http://www.w3.org/2000/svg">
	
    <g id="svgBody">
        <path d="M521.7 466.2L552.1 581.4L644.2 615.4L796.2 758.3L821.1 852.1H130L238.9 712.4L392.3 613.3L389.9 555.8L521.7 466.2Z" fill="#D5D5D5"/>
        <path d="M491.1 583.7L421.9 635.6L482.9 641.8L520.8 568.2L534.7 517.3L491.1 583.7Z" fill="#7F7F7F"/>
        <path d="M212.4 725.9L364.6 627.1L509.1 585.7L534.7 517.3L552.1 581.4L644.2 615.4L796.2 758.3L821.5 852H130L212.4 725.9Z" fill="#4B4B4B"/>
        <path d="M544 627.1L641 659.1L603 726.1L260 803.1L264.5 764.1L544 627.1Z" fill="#626262"/>
        <path d="M250.5 852L603 785.1L627.9 852.1L250.5 852Z" fill="#626262"/>
        <path d="M266.4 721.7L250.5 664.1L330.3 649.3L315.2 659.1L264.5 673.1L274.8 715.1L266.4 721.7Z" fill="#D5D5D5"/>
        <path d="M672.2 641.8L758 651.5L723.2 735.7L715.1 721.3L742.5 659.1L680.2 649.3L672.2 641.8Z" fill="#D5D5D5"/>
        <path d="M364.6 627.1L216 649.3L205 676.1L228 745.1L238 735.7L217 676.1L226 659.1L350.1 636.4L364.6 627.1Z" fill="#D5D5D5"/>
        <path d="M644.2 615.4L775 627.1L799 649.3L748.5 776.5L738.5 764.5L786 649.3L769 635.6L653.7 624.3L644.2 615.4Z" fill="#D5D5D5"/>
    </g>

    <g id="svgHead">
        <path d="M264.4 433.1L250.5 289.2L342.6 181.5L486.6 171.4L590.1 261.9L598.9 369.1L581.4 411.1L611.9 404.2L627.9 459L559 520L534.7 517.3L491.1 583.7L421.9 635.6L366.9 629.6L303.1 563L287 462.8L264.4 433.1Z" fill="#D5D5D5"/>
        <path d="M581.4 411.1L534.7 517.3L491.1 583.7L386 664.6L307.8 592.1L285.1 498.8L351.3 478.1L472.5 499.7L581.4 411.1Z" fill="#7F7F7F"/>
        <path d="M313 537.2L439.2 537.5L442.4 548.8L313 548.4V537.2Z" fill="#C1C1C1"/>
        <path d="M320 561.5L430.4 561.9L433.2 573.2L320 572.7V561.5Z" fill="#C1C1C1"/>
        <path d="M328.5 585.7L422.3 586.3L424.8 597.6L328.5 597V585.7Z" fill="#C1C1C1"/>
        <path d="M590.1 261.9L549.1 226.1L520 266.1L525.5 324.6L558 386.1L562 458L598.9 369.1L590.1 261.9Z" fill="#C1C1C1"/>
        <path d="M549.1 226.1L556.3 186.1L509 138.3L344.7 135L250.5 226.1L239.6 275.3L314 389L296.4 317.8L304.8 308.1L323 318.3L392.7 298.1L399 320.6L478.3 282.1L493.7 306L549.1 226.1Z" fill="#92A3D3"/>
        <path d="M620.7 288.1L618 250.1L590 219.1L549.1 226.1L590.1 261.9L595.4 326.1L623.6 354.9L605.8 311.6L620.7 288.1Z" fill="#92A3D3"/>
        <path d="M402.7 454.5L512 411.1L491.4 429.4L498.5 439.6L402.7 454.5Z" fill="black"/>
        <path d="M342.7 451.1L268.9 423.5L285.5 440.4L283.5 447.6L342.7 451.1Z" fill="black"/>
        <path d="M343.8 432.8L285.2 398.9L259.9 367.9L272.5 410.1L343.8 432.8Z" fill="#0D0D0D"/>
        <path d="M402.7 433.8L480.2 390.4L517 349.1L498.3 400.1L402.7 433.8Z" fill="#0D0D0D"/>
    </g>
		
</svg>
