<svg width="133" height="19" viewBox="0 0 133 19" fill="none" xmlns="http://www.w3.org/2000/svg">
<path d="M68.8813 19H65.8758L63.8721 17V6L62.8702 5H58.8628L57.861 6V11H62.8702V15H57.861V17L55.8573 19H52.8518V3.00001L55.8573 1.52587e-05H65.8758L68.8813 3.00001V19Z" fill="#FAFF00"/>
<path d="M37.824 19L35.8203 19V2.00001L37.824 1.52587e-05H47.8425L51.8499 4L48.3434 7.5L45.8388 5H40.8295V14H46.8406V13H44.8369V9.99999L45.8388 8.99999H51.8499V17L49.8462 19H37.824Z" fill="#FAFF00"/>
<path d="M32.8147 5H24.4797V7H30.811L31.8129 7.99999V11L30.811 12H24.4797V14H34.8184V16V19L33.8166 19H21.4741L19.4704 17V2.00001L21.4741 1.52587e-05H33.8166L34.8184 1.00001V3.00001L32.8147 5Z" fill="#FAFF00"/>
<path d="M110.959 5H101.942V7H108.955L109.957 7.99999V11L108.955 12H101.942V14H111.961L112.963 15V19L111.961 19H98.9369L96.9332 19V2.00001L98.9369 1.52587e-05H111.961L112.963 1.00001V3.00001L110.959 5Z" fill="#FAFF00"/>
<path d="M90.9221 17V5L89.9202 5L83.9091 11H81.9054L75.8943 5H74.8924V17L72.8887 19H69.8832V2.00001L71.8869 1.42097e-05L77.898 1.44719e-05L81.9054 4L83.9091 4L87.9165 1.49091e-05L93.9276 1.51713e-05L95.9313 2.00001V19H92.9258L90.9221 17Z" fill="#FAFF00"/>
<path fill-rule="evenodd" clip-rule="evenodd" d="M18.4686 5L13.4593 1.52587e-05H2.00371L3.3832e-06 2.00001V19H13.4593L18.4686 14V5ZM11.4556 5L13.4593 7V12L11.4556 14H5.00926V6L6.01112 5H11.4556Z" fill="#FAFF00"/>
<path d="M113.965 4.24265V2.82844L116.798 2.27354e-05L118.215 2.272e-05L123.482 5.25738L128.75 0H130.166L133 2.82842V4.24263L127.733 9.5L133 14.7573V16.1715L130.166 19H128.75L123.482 13.7426L118.215 19H116.798L113.965 19V14.7574L119.232 9.50002L113.965 4.24265Z" fill="#FAFF00"/>
</svg>
