<svg width="500" height="260" viewBox="0 0 500 260" fill="none" xmlns="http://www.w3.org/2000/svg">
<path d="M379.489 15.6756L377.604 22.9592V23.4342L363.305 34.2013L356.863 30.5595L355.449 23.9093L356.235 16.4673L361.577 9.3421L374.147 8.70874L379.489 15.6756Z" fill="white"/>
<path d="M357.02 22.6424L355.135 22.3258L353.249 24.0675L356.234 32.7761L360.634 35.1512L365.033 33.7262L379.646 22.6424L380.589 20.2674L376.032 18.5256L366.919 20.7424L366.133 24.0675L362.048 25.0175L357.02 22.6424Z" fill="black"/>
<path d="M340.052 114.479V110.045H340.209L346.965 112.737L346.651 115.112L348.694 115.904L349.322 117.012L348.694 117.646V118.754H347.437L347.751 119.704L346.965 120.337L342.094 118.754L340.68 115.587L340.052 114.479Z" fill="white"/>
<path d="M359.535 34.9929L363.934 27.2343L374.304 21.3757L385.774 22.4841L388.602 33.7262L398.501 44.3349V62.5438L400.544 76.9526L398.501 89.3031V94.8449L393.316 119.546L395.83 130.471L397.244 144.247L395.83 158.18L397.244 163.722L395.83 167.522L397.244 172.589L395.83 178.923H387.188L383.26 175.439L381.532 172.589L383.26 171.164V165.781V161.822L380.275 153.114L381.532 147.097L378.075 144.247L374.304 135.221L370.533 144.247L371.79 153.114L372.89 167.522V172.589L369.119 178.923H360.163L358.906 171.164L357.178 167.522L355.135 158.18L353.25 156.597L352.307 151.53L348.85 142.505V138.705L346.965 135.221L347.75 126.829L348.85 113.529H343.037L339.266 109.729L340.994 107.512L342.094 99.9118L340.994 97.3783L344.136 90.8865V85.1863L346.965 78.8527L345.708 72.2025L346.965 65.5523V54.6269L349.479 44.3349L359.535 37.3679V34.9929Z" fill="#5F5F5F"/>
<path d="M353.406 49.2433L354.978 46.2349H364.719L362.677 51.3017L360.477 52.0934L354.978 51.3017L353.406 49.2433Z" fill="#444444"/>
<path d="M354.192 66.5022L354.978 53.6768H358.277L357.649 66.5022L355.763 79.1693L352.464 78.6943L354.192 66.5022Z" fill="#444444"/>
<path d="M372.418 74.8942L373.518 70.9357L373.99 70.4607H393.944L394.887 70.9357L396.772 77.7443H374.618L372.418 74.8942Z" fill="#444444"/>
<path d="M376.032 80.4361V78.6943H379.96V80.4361H376.032Z" fill="#444444"/>
<path d="M394.416 80.4361L393.63 78.6943H395.83L396.772 80.4361H394.416Z" fill="#444444"/>
<path d="M377.603 96.2699L376.661 88.828L380.432 88.353L381.217 96.2699V102.762L382.16 105.612H378.075L377.289 103.712L377.603 96.2699Z" fill="#444444"/>
<path d="M395.83 96.5866L394.887 88.828L396.772 88.353L398.501 96.5866V103.712H395.83V96.5866Z" fill="#444444"/>
<path d="M373.518 119.704L376.032 107.829H379.96L377.289 119.704H373.518Z" fill="#444444"/>
<path d="M390.173 119.704L393.63 107.829H396.772L393.63 119.704H390.173Z" fill="#444444"/>
<path d="M348.693 133.955L348.064 128.254L346.65 130.313V137.121L351.207 142.188L356.863 142.98L368.647 137.121L374.304 133.955V125.563H372.733L371.79 129.046L367.233 132.054V133.321L356.863 139.021H352.778L348.693 133.955Z" fill="#444444"/>
<path d="M350.107 155.647V143.772H354.035L353.564 155.647L354.506 162.139L354.035 169.264H351.207V162.139L350.107 155.647Z" fill="#444444"/>
<path d="M340.208 106.404L341.622 101.812L345.864 103.712L352.778 104.345L351.207 109.57H344.765L340.208 106.404Z" fill="#444444"/>
<path d="M381.217 82.1778L380.432 78.6943H393.002L393.944 82.1778H381.217Z" fill="#444444"/>
<path d="M381.532 88.353V84.5529H393.944V87.878L381.532 88.353Z" fill="#444444"/>
<path d="M381.532 93.7365L381.217 90.4114L393.944 89.9364L394.416 93.7365H381.532Z" fill="#444444"/>
<path d="M379.96 32.3011V29.926L386.717 33.4094L390.959 47.6599L392.059 66.5022H390.173L388.602 47.6599L384.988 35.6262L379.96 32.3011Z" fill="#444444"/>
<path d="M387.345 28.9759L386.717 32.3011L384.988 31.5094L385.931 27.7092L387.345 28.9759Z" fill="#444444"/>
<path d="M363.463 7.28358L369.277 6.80857L366.449 4.43349L373.676 6.01687L372.105 3.95847L374.933 5.54186L372.419 2.37508L368.491 0.791694H372.419L377.447 5.54186V3.95847L379.176 5.54186L379.019 1.74173L379.804 0.791694L380.276 5.54186L382.632 0L384.204 0.316678L381.847 6.49189L384.204 5.54186L388.917 4.43349V5.54186L384.675 6.80857L382.947 7.91694L385.618 8.39196L390.017 6.49189L390.489 7.28358L386.561 9.50033L382.947 9.81701L386.246 11.5587L388.917 12.8254V13.9338H385.618L382.318 11.5587L382.947 14.4088L381.061 18.8423L381.847 14.4088L380.276 12.3504L379.176 13.1421L379.804 16.1506L379.019 20.4257L376.348 18.8423L367.234 21.2174L366.449 18.3673V16.1506L365.349 18.8423L364.406 16.1506L363.463 18.8423L364.092 23.1175L362.835 19.634L363.463 13.9338L361.735 17.4173L360.635 23.1175V18.3673L362.049 12.8254L360.635 15.3589L359.064 20.7424V17.5756L360.164 12.8254L358.278 17.1006L357.178 22.0091V17.1006L359.064 12.3504L356.707 15.3589L355.293 21.2174V15.3589L357.178 10.4504L363.463 7.28358Z" fill="#444444"/>
<path d="M356.392 171.956L366.762 173.381L372.419 171.956L374.462 173.381L373.519 176.231L374.462 178.923L373.519 180.031L375.404 181.456L376.19 187.948L380.118 194.282L380.948 199.507L384.203 194.282V188.74L385.146 182.881L382.318 176.231L384.203 175.439L391.431 177.023L397.716 175.439L394.259 183.99L395.045 187.948L394.102 190.956L395.045 191.59L394.259 193.49L395.045 196.498V203.624L384.203 204.732L379.473 203.624V202.713L362.049 207.424L348.536 205.682L349.636 200.298L357.021 199.507L363.149 192.382V187.948L362.049 183.99L355.292 172.589L356.392 171.956Z" fill="#444444"/>
<path d="M361.891 184.307L370.024 185.643L375.875 183.198L376.346 184.307L372.407 186.034L376.346 186.682V187.473L370.792 186.743L368.107 187.921L377.289 188.582V189.69L365.937 188.873L362.991 190.165V188.661L361.891 188.582V187.473L365.092 187.704L368.205 186.403L361.891 185.573V184.307Z" fill="white"/>
<path d="M384.674 183.831C385.396 184.144 389.7 184.263 392.869 184.296L394.73 183.198L395.201 183.831L394.514 184.306C394.588 184.306 394.66 184.307 394.73 184.307V185.573H392.681L390.713 186.933L395.201 187.473V188.582L389.202 187.977L384.203 191.432L383.731 189.69L387.008 187.756L384.203 187.473L384.674 186.207L388.793 186.702L390.706 185.573H384.674V183.831Z" fill="white"/>
<path d="M375.875 181.615L360.948 183.198V184.307L375.875 182.406V181.615Z" fill="white"/>
<path d="M133.821 29.8269L140.735 36.7938L165.246 44.5524L177.03 41.8606L184.415 33.3103L178.916 20.1682L166.032 12.5679L150.476 11.9346L135.55 19.2182L133.821 29.8269Z" fill="#5F5F5F"/>
<path d="M149.062 23.3352L148.277 36.9523L155.504 40.5941H160.375V39.8024L164.46 37.9023L169.803 30.4604L171.217 19.2183L165.717 14.4682L157.39 13.9932L149.062 23.3352Z" fill="white"/>
<path d="M124.551 107.255L125.18 101.238L129.579 99.8128L132.25 102.821L130.679 107.888L129.893 111.847L131.779 121.505V123.722L131.15 125.622L132.564 126.572L129.893 128.155V129.105L127.065 128.472H125.965L125.18 127.68L123.137 120.714L124.551 107.255Z" fill="white"/>
<path d="M122.037 189.908L125.18 174.074L137.121 178.032L128.793 193.391L124.237 194.024L122.037 189.908Z" fill="white"/>
<path d="M179.23 175.499L177.973 168.057L190.7 169.165L189.914 178.032L189.129 191.649L184.101 195.133L181.273 192.124V182.624L179.23 175.499Z" fill="white"/>
<path d="M129.264 51.2027L147.019 38.5356L148.747 36.3188L155.661 40.4357H160.846L163.988 43.4441L172.473 46.9275L174.044 51.2027L175.93 52.7861V57.3779L180.015 63.3948L177.501 73.3701H175.93L174.987 76.3786L175.93 77.6453L178.129 78.7537L191.014 98.8627L192.271 128.559L191.642 132.589L194.942 141.456L192.271 143.356L191.014 146.364L191.642 149.373V155.073L193.37 155.865V160.931L196.356 165.682L192.271 166.948L191.642 169.482L185.357 170.59L177.344 168.532L176.715 165.682L173.73 162.198V158.24L176.715 155.865V151.114L171.687 146.364L172.787 140.506L171.687 137.181V129.105L169.33 122.772L168.388 116.28L167.445 121.663L164.617 126.572L161.789 130.214L159.746 138.447L154.718 144.781L153.775 154.44L147.962 157.29L149.533 160.931L145.133 162.198L144.191 168.532L142.934 176.29H139.006L137.434 179.299H130.835L125.179 174.39V169.482L123.765 166.948L125.179 162.198L129.264 160.14L133.192 150.481L131.464 147.314L133.192 144.781V142.723L136.335 140.506L137.434 134.647L139.791 119.763L147.019 103.138L144.191 101.079L145.605 97.9126L144.191 94.2709L147.962 93.1625L148.747 89.5207L147.019 83.3455L141.991 78.7537L137.434 67.3533L138.849 80.1787L132.406 103.138L129.264 101.079L125.179 101.871V87.779L128.321 78.7537L126.75 64.9782L129.264 51.2027Z" fill="#5F5F5F"/>
<path d="M163.675 25.3933L153.148 23.6516L149.22 29.6685L155.662 39.0105L159.276 40.1188L164.304 38.3771L168.546 31.0935L163.675 25.3933Z" fill="black"/>
<path d="M157.861 18.4266L162.889 15.2598L167.288 16.2099L170.116 18.9016L169.331 27.6102L166.503 34.2605L160.375 39.8023L159.746 43.7608L161.789 45.5025L166.817 45.1859L168.702 37.2689L170.116 35.5272L173.259 25.0768L170.588 16.6849L166.817 15.2598L164.303 13.2014H154.09L147.962 20.01L141.206 34.2605L135.706 39.169L129.578 46.9276L133.349 44.7108L129.578 52.4694L132.092 50.2527L128.636 67.67L134.606 53.4195L139.477 46.9276L143.091 45.9775L146.234 41.7024L146.862 44.3942L145.291 50.2527L150.476 44.3942L149.533 40.7524L150.476 28.7186L151.262 30.1437L152.361 26.5019L151.89 34.5772L154.561 26.5019L157.861 18.4266Z" fill="#444444"/>
<path d="M128.479 106.938H124.394L122.98 110.58L122.666 113.113L121.88 114.38L122.352 116.596L120.78 120.238L122.352 122.93L122.98 125.147L125.023 127.997L125.651 127.68V126.097H127.38L128.479 124.83L128.008 123.88L128.794 122.455L132.25 121.505L131.936 116.596L130.365 112.321L131.465 108.204L128.479 106.938Z" fill="#444444"/>
<path d="M124.551 192.599L121.409 189.274L116.067 196.241V203.683L114.81 206.691L113.553 215.083L115.595 219.833L127.537 220.783L130.993 219.042L130.522 213.658L128.637 204.949L129.579 197.824L129.108 192.599H124.551Z" fill="#444444"/>
<path d="M181.744 192.599L180.959 188.482L179.859 189.749L179.545 192.282L178.352 194.499L177.973 197.824L177.031 198.933L174.674 204.949L179.859 210.016H183.158L185.987 213.658L194.943 216.192L202.328 214.291L201.699 206.691L197.771 201.941L192.272 194.499L191.172 189.749L189.601 189.274L188.972 191.649L185.201 193.866L181.744 192.599Z" fill="#444444"/>
<path d="M135.236 111.055L136.65 104.088H140.421L147.491 108.204L146.549 110.58L143.406 113.588L137.436 110.58L135.236 111.055Z" fill="#444444"/>
<path d="M151.262 109.946L151.891 108.679L152.834 106.463L155.348 108.204L154.091 110.58L151.262 109.946Z" fill="#444444"/>
<path d="M186.772 104.088L178.445 86.8287L179.545 85.8787L189.129 102.821L191.172 117.388L193.214 129.264H191.643L189.129 118.338L186.772 104.088Z" fill="#444444"/>
<path d="M194.786 145.889L192.586 134.172L194.157 133.38L198.085 144.939V153.489H194.786V145.889Z" fill="#444444"/>
<path d="M154.091 81.7619L146.549 83.1869L148.434 89.3621L157.233 88.0954L160.69 86.8287L175.617 77.8034L174.674 75.5867L168.232 73.5282L154.091 81.7619Z" fill="#444444"/>
<path d="M154.562 52.4692L144.349 43.1272L142.463 45.3439L152.362 55.0026L159.119 60.2278L164.775 74.9533L167.603 73.3699L161.947 58.3277L154.562 52.4692Z" fill="#444444"/>
<path d="M136.179 62.9195V58.3277L149.534 55.0026L148.434 62.2862L141.678 64.978L136.179 62.9195Z" fill="#444444"/>
<path d="M174.674 52.4692H163.832L167.132 57.536L173.574 59.1194L175.617 57.536L174.674 52.4692Z" fill="#444444"/>
<path d="M151.262 110.58L148.12 108.679L147.02 111.055L143.878 114.38L139.478 116.596L137.436 132.43L147.491 134.172L155.348 111.371L151.262 110.58Z" fill="#444444"/>
<path d="M160.218 137.022L149.22 132.43L150.163 129.897L161.79 131.955L160.218 137.022Z" fill="#444444"/>
<path d="M154.091 119.13L165.718 125.147L167.76 121.505L155.348 115.488L154.091 119.13Z" fill="#444444"/>
<path d="M255.946 133.386H248.122L242.906 128.139V99.2823L240.298 96.6589H229.865L227.257 99.2823V112.399H240.298V122.893H227.257V128.139L222.041 133.386H214.217V91.4122L222.041 83.542H248.122L255.946 91.4122V133.386Z" fill="#FAFF00"/>
<path d="M175.096 133.386L169.88 133.386V88.7888L175.096 83.542H201.177L211.609 94.0355L202.481 103.217L195.961 96.6589H182.92V120.269H198.569V117.646H193.353V109.776L195.961 107.152H211.609V128.139L206.393 133.386H175.096Z" fill="#FAFF00"/>
<path d="M162.056 96.6589H140.358V101.906H156.84L159.448 104.529V112.399L156.84 115.023H140.358V120.269H167.272V125.516V133.386L164.664 133.386H132.533L127.317 128.139V88.7888L132.533 83.542H164.664L167.272 86.1654V91.4122L162.056 96.6589Z" fill="#FAFF00"/>
<path d="M365.485 96.6589H342.013V101.906H360.269L362.877 104.529V112.399L360.269 115.023H342.013V120.269H368.093L370.702 122.893V133.386L368.093 133.386H334.188L328.972 133.386V88.7888L334.188 83.542H368.093L370.702 86.1654V91.4122L365.485 96.6589Z" fill="#FAFF00"/>
<path d="M313.324 128.139V96.6589L310.716 96.6589L295.067 112.399H289.851L274.203 96.6589H271.595V128.139L266.378 133.386H258.554V88.7888L263.77 83.542L279.419 83.542L289.851 94.0355L295.067 94.0355L305.5 83.542L321.148 83.542L326.364 88.7888V133.386H318.54L313.324 128.139Z" fill="#FAFF00"/>
<path fill-rule="evenodd" clip-rule="evenodd" d="M124.709 96.6589L111.669 83.542H81.847L76.6309 88.7888V133.386H111.669L124.709 120.269V96.6589ZM106.453 96.6589L111.669 101.906V115.023L106.453 120.269H89.6712V99.2823L92.2793 96.6589H106.453Z" fill="#FAFF00"/>
<path d="M373.31 94.6721V90.9621L380.686 83.5421L384.375 83.5421L398.087 97.3341L411.798 83.542H415.486L422.863 90.962V94.672L409.152 108.464L422.863 122.256V125.966L415.486 133.386H411.798L398.087 119.594L384.375 133.386H380.687L373.31 133.386V122.256L387.021 108.464L373.31 94.6721Z" fill="#FAFF00"/>
<path d="M153.164 162V150.496H162.3C162.737 150.496 163.132 150.603 163.484 150.816C163.847 151.029 164.135 151.317 164.348 151.68C164.572 152.043 164.684 152.437 164.684 152.864V155.84C164.684 156.267 164.572 156.661 164.348 157.024C164.135 157.387 163.847 157.675 163.484 157.888C163.132 158.101 162.737 158.208 162.3 158.208L155.644 158.224V162H153.164ZM155.644 155.712H162.172V152.976H155.644V155.712ZM168.156 162C167.729 162 167.335 161.893 166.972 161.68C166.609 161.467 166.321 161.179 166.108 160.816C165.895 160.453 165.788 160.059 165.788 159.632V152.848C165.788 152.411 165.895 152.016 166.108 151.664C166.321 151.301 166.609 151.013 166.972 150.8C167.335 150.587 167.729 150.48 168.156 150.48H174.94C175.367 150.48 175.756 150.587 176.108 150.8C176.471 151.013 176.759 151.301 176.972 151.664C177.196 152.016 177.308 152.411 177.308 152.848V159.632C177.308 160.059 177.196 160.453 176.972 160.816C176.759 161.179 176.471 161.467 176.108 161.68C175.756 161.893 175.367 162 174.94 162H168.156ZM168.268 159.504H174.796V152.976H168.268V159.504ZM182.364 162L178.172 150.48H180.812L183.324 157.344L185.836 150.48H188.124L190.652 157.344L193.164 150.48H195.788L191.596 162H189.692L186.972 154.592L184.268 162H182.364ZM197.399 162V150.48H208.039V152.976H199.911V154.992H206.455V157.488H199.911V159.504H208.039V162H197.399ZM218.561 162L215.217 158.016H218.465L221.121 161.152V162H218.561ZM209.617 162V150.496H218.753C219.19 150.496 219.585 150.603 219.937 150.816C220.3 151.029 220.588 151.317 220.801 151.68C221.025 152.043 221.137 152.437 221.137 152.864V155.84C221.137 156.267 221.025 156.661 220.801 157.024C220.588 157.387 220.3 157.675 219.937 157.888C219.585 158.101 219.19 158.208 218.753 158.208L212.097 158.224V162H209.617ZM212.097 155.712H218.625V152.976H212.097V155.712ZM222.852 162V150.48H233.492V152.976H225.364V154.992H231.908V157.488H225.364V159.504H233.492V162H222.852ZM235.102 162V150.48H244.238C244.675 150.48 245.07 150.587 245.422 150.8C245.785 151.013 246.073 151.301 246.286 151.664C246.51 152.016 246.622 152.411 246.622 152.848V159.632C246.622 160.059 246.51 160.453 246.286 160.816C246.073 161.179 245.785 161.467 245.422 161.68C245.07 161.893 244.675 162 244.238 162H235.102ZM237.566 159.504H244.11V152.976H237.566V159.504ZM253.618 162V150.48H262.322C262.749 150.48 263.138 150.587 263.49 150.8C263.853 151.013 264.141 151.301 264.354 151.664C264.578 152.016 264.69 152.411 264.69 152.848V155.008C264.69 155.147 264.679 155.28 264.658 155.408C264.647 155.525 264.621 155.637 264.578 155.744C264.738 155.947 264.871 156.181 264.978 156.448C265.085 156.715 265.138 156.981 265.138 157.248V159.632C265.138 160.059 265.026 160.453 264.802 160.816C264.589 161.179 264.301 161.467 263.938 161.68C263.586 161.893 263.191 162 262.754 162H253.618ZM256.098 159.504H262.626V157.392H256.098V159.504ZM256.098 154.896H262.178V152.976H256.098V154.896ZM270.514 162V157.696L265.186 150.48H268.146L271.762 155.024L275.362 150.48H278.354L273.01 157.712V162H270.514ZM284.321 162V150.48H293.025C293.452 150.48 293.841 150.587 294.193 150.8C294.556 151.013 294.844 151.301 295.057 151.664C295.281 152.016 295.393 152.411 295.393 152.848V155.008C295.393 155.147 295.383 155.28 295.361 155.408C295.351 155.525 295.324 155.637 295.281 155.744C295.441 155.947 295.575 156.181 295.681 156.448C295.788 156.715 295.841 156.981 295.841 157.248V159.632C295.841 160.059 295.729 160.453 295.505 160.816C295.292 161.179 295.004 161.467 294.641 161.68C294.289 161.893 293.895 162 293.457 162H284.321ZM286.801 159.504H293.329V157.392H286.801V159.504ZM286.801 154.896H292.881V152.976H286.801V154.896ZM297.602 162V150.464H300.082V159.504H309.122V162H297.602ZM310.087 162V152.848C310.087 152.411 310.193 152.016 310.407 151.664C310.62 151.301 310.908 151.013 311.271 150.8C311.633 150.587 312.028 150.48 312.455 150.48H319.223C319.66 150.48 320.055 150.587 320.407 150.8C320.769 151.013 321.057 151.301 321.271 151.664C321.495 152.016 321.607 152.411 321.607 152.848V162H319.095V158.288H312.567V162H310.087ZM312.567 155.792H319.095V152.976H312.567V155.792ZM325.766 162C325.339 162 324.944 161.893 324.582 161.68C324.219 161.467 323.931 161.179 323.718 160.816C323.504 160.453 323.398 160.059 323.398 159.632V158.56H325.878V159.504H332.406V157.488H325.766C325.339 157.488 324.944 157.381 324.582 157.168C324.219 156.955 323.931 156.672 323.718 156.32C323.504 155.957 323.398 155.557 323.398 155.12V152.848C323.398 152.411 323.504 152.016 323.718 151.664C323.931 151.301 324.219 151.013 324.582 150.8C324.944 150.587 325.339 150.48 325.766 150.48H332.55C332.976 150.48 333.366 150.587 333.718 150.8C334.08 151.013 334.368 151.301 334.582 151.664C334.806 152.016 334.918 152.411 334.918 152.848V153.92H332.406V152.976H325.878V154.992H332.55C332.976 154.992 333.366 155.099 333.718 155.312C334.08 155.525 334.368 155.813 334.582 156.176C334.806 156.528 334.918 156.923 334.918 157.36V159.632C334.918 160.059 334.806 160.453 334.582 160.816C334.368 161.179 334.08 161.467 333.718 161.68C333.366 161.893 332.976 162 332.55 162H325.766ZM340.616 162V152.976H336.104V150.48H347.624V152.976H343.112V162H340.616Z" fill="white"/>
<path d="M416.724 60.018L419.395 54.6345L426.151 52.4177L438.878 57.3262L450.977 66.8266L445.949 75.0602H427.879L416.724 60.018Z" fill="black"/>
<path fill-rule="evenodd" clip-rule="evenodd" d="M423.952 71.26L415.311 60.0179L419.239 50.5176V40.8589L432.123 25.9751L443.907 28.6669L454.12 45.1341L464.019 55.4261L480.674 65.7181L497.8 94.8525L500 105.936L494.029 118.603H487.587L485.231 121.295L482.717 120.028L480.517 121.295L478.16 120.028L471.875 124.62L470.932 133.804L472.975 137.762L471.875 140.612V143.146L469.361 146.313L468.575 159.138L469.361 167.055L467.318 173.864L467.947 178.455L466.219 188.431L467.318 189.697L467.947 193.973L470.304 198.089L468.418 213.765L462.29 216.298L455.848 213.765L454.591 211.865L452.549 200.939L453.02 197.456L452.549 193.339L447.835 187.639L446.735 169.272L445.164 164.363L443.436 171.013L444.221 178.455L441.707 181.464L442.65 185.897L444.221 187.639V191.597L446.264 195.714L447.835 216.298L442.65 218.832L435.894 217.09L434.951 215.19V213.765L434.008 212.657L433.223 210.281H432.123V208.54L429.137 205.056V198.089L427.566 193.339L425.052 190.172V185.897L422.852 184.314L423.952 181.464L422.852 171.013L420.496 168.638L422.852 164.363L421.753 161.038L425.052 123.67V114.118L423.952 107.678L419.239 106.728L416.253 107.678L415.311 102.294L416.253 97.2276L419.239 94.8525L417.353 88.0439L423.952 71.26ZM442.179 73.4767L447.364 68.7266L430.709 55.4261H419.239L417.353 60.0179L427.88 73.4767H442.179ZM473.603 111.003L472.975 112.586L470.932 114.118L472.975 107.678L471.875 101.344L474.86 103.561L479.103 104.511L475.96 107.678V110.053L473.603 111.003Z" fill="#5F5F5F"/>
<path d="M468.261 56.8515L461.034 53.2097L460.248 63.3434L460.562 70.627H464.019L464.648 65.7185L469.675 60.335L475.646 62.235L468.261 56.8515Z" fill="#444444"/>
<path d="M462.919 90.5777L460.562 73.9521L464.019 73.0021L465.904 84.4025L464.648 87.7276L467.79 95.3278L465.119 96.4362L462.919 90.5777Z" fill="#444444"/>
<path d="M464.491 97.7026L468.262 96.5942L469.519 99.286L473.604 102.453L476.746 107.678L473.604 110.845L472.504 113.536L466.533 116.862L461.506 115.912L459.777 113.536L464.491 97.7026Z" fill="#444444"/>
<path d="M454.435 148.054H445.636L446.736 162.622H455.063L454.435 148.054Z" fill="#444444"/>
<path d="M462.134 169.113L465.119 165.947L472.504 164.997L473.604 170.063L472.504 179.564L467.948 182.256H462.134V169.113Z" fill="#444444"/>
<path d="M454.435 169.113L447.05 168.638L447.522 174.18L453.492 174.497L459.777 173.389V167.688L454.435 169.113Z" fill="#444444"/>
<path d="M462.134 215.823L454.435 212.34L455.692 215.823L454.435 219.148L456.32 221.207L455.063 223.107L455.692 225.482V228.49V233.557L452.235 245.908L450.978 256.2L454.435 260L464.177 259.208L467.948 249.391L466.376 234.666L467.162 230.707L466.376 227.54L467.162 225.482V222.474L468.419 220.574L467.948 218.04L468.419 212.815L466.376 214.557L462.134 215.823Z" fill="#444444"/>
<path d="M441.079 218.04L435.266 215.823V219.148L436.68 226.274L432.438 233.557L419.554 242.741L421.282 248.758H432.438L439.665 244.483H444.85L452.235 240.049L451.764 235.299L450.978 228.49L449.564 225.482V223.107L448.464 219.148V218.04L447.522 214.557L444.85 218.04H441.079Z" fill="#444444"/>
<path d="M438.723 130.479L450.035 132.854H451.921L455.063 135.704H459.777L463.234 136.654H438.723L428.824 132.854V126.362L438.723 130.479Z" fill="#444444"/>
<path d="M425.367 145.838L428.195 127.154L421.125 124.145L419.239 142.988L425.367 145.838Z" fill="#444444"/>
<path d="M430.866 148.054L433.695 135.704H434.952L432.281 148.054L432.909 160.721H431.495L430.866 148.054Z" fill="#444444"/>
<path d="M443.122 148.054L445.008 137.762V137.287H447.05L444.222 148.054L443.122 158.98H442.336L443.122 148.054Z" fill="#444444"/>
<path d="M449.092 127.787L453.963 125.412L458.991 135.229L457.576 136.337H453.963L449.563 131.587L450.506 129.371L449.092 128.579V127.787Z" fill="white"/>
<path d="M418.453 125.887L414.839 123.353L425.052 119.078V121.928L426.78 124.62L425.052 125.253L423.009 123.987L422.067 126.678L418.453 125.887Z" fill="white"/>
<path d="M470.303 121.137L466.061 117.02L461.819 119.553L454.905 122.562L451.291 128.262L456.476 134.437L458.99 135.862L464.49 132.537L467.004 130.32L467.789 128.262L472.66 125.412L470.303 121.137Z" fill="black"/>
<path d="M420.181 106.253L415.781 108.153L414.996 112.586L413.11 116.228L414.367 123.67L421.438 122.562V121.137L425.68 119.553L423.323 112.586V106.253H420.181Z" fill="black"/>
<path d="M77.6184 131.822L36.2949 146.706L37.8662 150.823L79.1897 135.305L133.083 122.48L124.755 120.263L77.6184 131.822Z" fill="#444444"/>
<path d="M34.0964 188.982L71.3347 177.423L86.4186 206.083L83.5903 213.525L73.3773 217.641L68.3494 214.95L31.7396 208.774L26.2402 197.849L34.0964 188.982Z" fill="#5F5F5F"/>
<path d="M68.0353 185.024L75.7343 182.49L85.3189 212.417L69.6065 198.454L42.8955 198.799L68.0353 196.266V185.024Z" fill="#444444"/>
<path d="M43.8369 154.306L45.7224 158.898L52.6358 160.481L56.0926 168.556L64.4201 176.79L76.6757 180.749L69.7623 185.499V196.107L83.7463 211.783L90.974 223.658L99.4587 221.442L97.1018 215.741V209.408L107.943 208.141L115.642 190.407L105.901 167.29L99.4587 143.697L89.2456 133.247L79.504 131.822L76.6757 122.48L67.2483 110.921L56.0926 112.98L45.7224 133.247L47.4508 138.789L43.8369 154.306Z" fill="#5F5F5F"/>
<path d="M80.9186 187.241L72.9053 185.657L75.5764 182.649L83.4326 184.391L89.8746 190.091L87.5178 192.782L80.9186 187.241Z" fill="#444444"/>
<path d="M85.1609 183.757L80.4472 181.857L82.4898 179.64L88.3034 181.857L93.1742 187.241L91.1316 189.299L85.1609 183.757Z" fill="#444444"/>
<path d="M73.8485 171.407L79.6621 159.056L86.5755 156.523L96.7885 160.323L88.461 181.857L69.7633 187.399L53.2653 192.624L45.7234 189.932L49.4944 184.39L73.8485 171.407Z" fill="white"/>
<path d="M36.4531 174.257L23.569 164.598H18.541L15.5557 169.19L36.4531 188.665H40.3812L59.7074 170.457L55.1508 165.865L53.7367 161.431L51.8512 159.056L45.7234 157.948L36.4531 174.257Z" fill="white"/>
<path d="M60.9645 122.163L69.4491 123.113L70.549 129.13V140.214L65.0497 148.289H59.2361L52.9512 135.147L53.4225 125.647L60.9645 122.163Z" fill="black"/>
<path d="M61.2786 137.997L52.9511 136.889L52.1655 133.405L52.4793 129.922L61.2786 131.505L70.706 129.447L71.3345 133.247L71.0203 136.572L61.2786 137.997Z" fill="white"/>
<path d="M33.7812 144.964L34.0955 147.339V147.656L36.1381 151.456L38.1807 153.198L39.1235 152.881L38.1807 148.447L34.8811 144.489L33.7812 144.964Z" fill="black"/>
<path d="M36.924 151.614L2.04261 166.023L0.471371 164.123L0 162.064L34.7243 147.022L36.2955 149.081L36.924 151.614Z" fill="black"/>
<path d="M70.3915 224.45L72.1199 216.533L76.6765 215.9L83.4328 212.733L87.7133 221.6L88.4607 218.908L91.289 221.6L95.8456 219.858L97.2597 215.9L99.6165 216.533L104.016 227.142L95.8456 241.867L89.0892 243.926L83.4328 241.867V239.017L86.4181 227.142L80.1332 233.475L64.7351 235.375L62.8496 230.309L70.3915 224.45Z" fill="#444444"/>
<path d="M93.1748 195.633L96.3173 209.408L94.746 195.633H93.1748Z" fill="#444444"/>
<path d="M23.5677 160.165V165.232L20.2681 169.348H15.8687L10.6836 162.381L20.2681 158.106L26.8673 153.198L28.5957 153.989L23.5677 160.165Z" fill="#444444"/>
<path d="M11.1558 151.139L17.5979 149.714L21.8402 152.723L19.7976 153.831V156.839L11.1558 159.848L8.48473 159.056L7.54199 156.839L11.1558 151.139Z" fill="#444444"/>
<path d="M32.4844 201.71L35.8387 193.052L36.4756 192.434L35.991 190.594L40.2226 185.996L47.3875 185.046L50.2785 183.78L53.8924 187.49L54.3638 192.434L49.3209 194.963L47.3875 197.104L45.293 204.52L43.334 204.276L43.1616 200.491L42.4196 202.251L41.2945 206.668L39.4791 206.782L38.674 205.547L37.7509 206.339L36.0039 205.591L36.4298 199.688L34.1066 202.404L32.4844 201.71Z" fill="#444444"/>
<path d="M78.1051 178.006L86.5402 156.523L90.6597 157.902L88.3057 164.209L89.8751 165.983L86.5402 174.458L88.8942 166.377L87.3249 164.604L89.4827 158.888L88.3057 158.297L83.7939 169.531L85.1671 171.305L82.0284 179.385V182.933L81.2437 179.385L84.3824 171.699L83.0092 169.925L87.7172 157.902L86.9326 157.508L78.6936 178.597L63.5888 184.707L58.2923 182.933L63.5888 184.116L78.1051 178.006Z" fill="#444444"/>
<path d="M51.8502 159.056L48.2364 158.423L43.3655 168.081L40.8516 169.348L43.3655 168.556L48.8649 159.056L50.4361 159.373L41.6372 173.465L40.8516 178.597L42.1086 173.465L51.8502 159.056Z" fill="#444444"/>
</svg>
